<svg width="12" height="12" viewBox="0 0 12 12" fill="none" xmlns="http://www.w3.org/2000/svg">
<path d="M10.8747 5.93112V8.67992C10.8721 8.74995 10.8376 8.8139 10.7816 8.8614C10.7452 8.89246 10.6996 8.9156 10.6475 8.929C10.5173 8.96188 10.3767 8.92169 10.2986 8.8279L7.34234 5.39582L7.35752 11.2409C7.35687 11.3816 7.21299 11.5003 7.03787 11.4997L4.97163 11.4998C4.79651 11.5004 4.65264 11.3816 4.65199 11.241L4.66717 5.3959L1.71094 8.82798C1.63282 8.92177 1.4922 8.96197 1.362 8.92908C1.30992 8.91568 1.26435 8.89254 1.22789 8.86148C1.17191 8.81398 1.1374 8.75003 1.13479 8.68V5.93121C1.13349 5.87152 1.15498 5.8155 1.19404 5.76921L5.59008 0.688265C5.68643 0.573165 5.83742 0.504263 6.00473 0.5C6.17204 0.504263 6.32307 0.573081 6.41942 0.688181L10.8155 5.76913C10.8545 5.81541 10.876 5.87144 10.8747 5.93112Z" fill="black"/>
</svg>