<svg width="72" height="72" viewBox="0 0 72 72" fill="none" xmlns="http://www.w3.org/2000/svg">
<g clip-path="url(#clip0_1911_4195)">
<path fill-rule="evenodd" clip-rule="evenodd" d="M38.8008 32.4013C38.7994 32.4012 38.7976 32.4012 38.7958 32.4012C38.7928 32.4013 38.79 32.4014 38.79 32.4014L38.7958 32.4012L38.8008 32.4013Z" fill="#F5F1F0"/>
<path fill-rule="evenodd" clip-rule="evenodd" d="M36 72C55.8823 72 72 55.8823 72 36C72 16.1177 55.8823 0 36 0C16.1177 0 0 16.1177 0 36C0 55.8823 16.1177 72 36 72ZM38.9453 32.548L27.8547 24.4627C27.6728 24.33 27.7714 24.0474 27.9978 24.0461L36.3401 24C36.3936 24.0005 36.4456 24.017 36.4881 24.0488L51.763 35.2882C52.1847 35.5946 52.181 36.2091 51.7715 36.5189L36.6147 47.9094C36.575 47.9423 36.5246 47.9544 36.4711 47.9539L28.1288 48C27.8986 47.997 27.7998 47.7137 27.98 47.579L38.9793 39.3805C39.1638 39.2421 39.0649 38.9587 38.8386 38.96L19.9891 39.0568C19.9356 39.0563 19.8836 39.0398 19.8492 39.0085C19.7867 38.9707 19.7512 38.9029 19.75 38.8221L19.7179 33.3011C19.7209 33.1719 19.8284 33.0679 19.9519 33.07L20.5615 33.0643L38.8058 32.9691C39.0363 32.9722 39.131 32.6848 38.9453 32.548ZM38.7958 32.4012C38.7976 32.4012 38.7994 32.4012 38.8008 32.4013L38.79 32.4014C38.79 32.4014 38.7928 32.4013 38.7958 32.4012Z" fill="black"/>
</g>
<defs>
<clipPath id="clip0_1911_4195">
<rect width="72" height="72" fill="white" transform="matrix(-1 0 0 1 72 0)"/>
</clipPath>
</defs>
</svg>