<svg width="44" height="44" viewBox="0 0 44 44" fill="none" xmlns="http://www.w3.org/2000/svg">
<path d="M35.1632 13.7353C35.3883 13.6053 35.6986 13.7216 35.8564 13.9949C36.0142 14.2682 35.9597 14.5951 35.7346 14.725L8.83688 30.2544C8.6118 30.3844 8.30142 30.2682 8.14362 29.9949C7.98583 29.7216 8.04037 29.3947 8.26545 29.2647L35.1632 13.7353Z" fill="black"/>
<path d="M35.7346 29.2647C35.9597 29.3947 36.0142 29.7216 35.8564 29.9949C35.6986 30.2682 35.3882 30.3844 35.1632 30.2544L8.26543 14.725C8.04036 14.5951 7.98581 14.2682 8.14361 13.9949C8.3014 13.7216 8.61178 13.6053 8.83686 13.7353L35.7346 29.2647Z" fill="black"/>
</svg>
