<?xml version="1.0" encoding="UTF-8"?>
<svg id="cool" xmlns="http://www.w3.org/2000/svg" width="100%" height="100%" version="1.1" viewBox="0 0 66 56">
  <!-- Generator: Adobe Illustrator 29.3.1, SVG Export Plug-In . SVG Version: 2.1.0 Build 151)  -->
  <path d="M481.5,86.364c-4.12-6.93-61.69-9-94.5-9-72,0-117.04,27.46-157.54,58.96-5.9-.38-11.76-.46-17.96-.46-6.47,0-12.2,0-17.94.32-27-44.99-49.08-66.53-90.06-99.32C81,18.864,32.7-4.836,27,.864,18,9.864,0,68.364,0,126.864c0,36,18,90,40.5,121.5,22.1,30.94,13.5,84.48,13.5,88.98,0,10.06,74.21,67.48,157.45,67.5h.05c83.24-.02,157.45-57.44,157.45-67.5,0-4.5-6.85-52.98,4.55-65.08,6.07-6.44,32.02-37.35,54-68.9,33.44-48,60.5-106.05,54-117ZM90.72,162.674c-.16-.07-.29-.2-.38-.36l-29.51-58.84c-.36-.72-1.41-.56-1.56.23l-8.55,47.44c-.15.79-1.2.94-1.57.23l-13.06-26.06c-.08-.16-.11-.35-.07-.52l12.08-65.51c.34-1.78,2.28-2.77,3.91-1.96l59.76,29.47c.17.08.3.21.38.37l13.07,26.06c.35.71-.4,1.46-1.11,1.11l-43.15-21.51c-.72-.35-1.47.4-1.11,1.11l28.56,56.96.95,1.88c.21.41.04.91-.37,1.11l-17.53,8.79c-.25.13-.52.12-.74,0h0ZM175.38,257.504l1.68,12.5-65.58-27.99-3.48-15.615,67.115,26.862.265,4.242ZM131.84,295.834c-15.77-3.39-26.23-13.48-23.37-22.56,2.87-9.07,17.98-13.68,33.76-10.29,15.77,3.38,26.24,13.48,23.37,22.55-2.87,9.07-17.98,13.68-33.76,10.3h0ZM229.5,364.334c-5.14-.62-18-9-18-9,0,0-12.8,8.38-18,9-2.64.32-31.5-19.5-31.5-19.5l9-6.47s18.46,11.56,22.84,13.03c1.83.61,12.83-3.31,13.16-5.06.09-.47,0-9,0-9,0,0-10.05-6.23-12.83-9-1.83-1.81-.43-5.69,1.68-5.69h31.27c2.12,0,3.51,3.87,1.68,5.69-2.77,2.76-12.8,9-12.8,9,0,0-.09,8.53,0,9,.33,1.75,11.31,5.59,13.14,4.98,4.39-1.47,22.86-12.95,22.86-12.95l9.22,6.47s-29.08,19.82-31.72,19.5ZM290.27,295.834c-14.39,3.38-28.19-1.23-30.8-10.3-2.62-9.07,6.93-19.17,21.33-22.55,14.4-3.39,28.19,1.22,30.81,10.29,2.61,9.08-6.94,19.17-21.34,22.56h0ZM284.593,221.097c-14.6,3.37-30.533,18.157-34.153,29.397,0,0-9.3-12.58-7.11-16.5,3.64-6.53,26.5-30.16,43.48-27.25,22.8,3.9,36.9,31.53,37.18,32.15-.67-.65-23.817-21.397-39.397-17.797h0ZM422.82,119.774l-23.76,62.22c-.06.18-.18.32-.34.41l-24.71,15.46c-.68.41-1.5-.26-1.22-1.01l17.38-44.97c.28-.74-.53-1.42-1.21-1l-55.82,34.89c-.16.1-.34.14-.51.11-.25-.01-.49-.14-.63-.38l-10.4-16.63c-.25-.39-.13-.9.26-1.13l1.8-1.12,54.02-33.78c.68-.42.42-1.46-.37-1.53l-48.04-4.09c-.79-.06-1.04-1.1-.37-1.52l24.71-15.45c.16-.1.34-.14.52-.12l66.37,5.93c1.82.16,2.96,2.01,2.32,3.71h0Z"/>
</svg>