<svg width="215" height="280" viewBox="0 0 215 280" fill="none" xmlns="http://www.w3.org/2000/svg">
<path d="M141 232.5C125.273 223.999 110.059 216.261 83.146 220.827C61.5018 224.5 28.5014 223.353 27.0002 239C25.2252 257.5 106.802 293.013 156 275C177.5 267.128 162 243.851 141 232.5Z" fill="black"/>
<path d="M214.672 35.9205C214.207 27.5918 212.511 7.56972 206.824 1.538C204.188 -1.25578 197.43 0.296793 191.166 2.18387C185.207 3.97887 178.618 6.57565 174.787 8.25329C167.91 11.2604 146.014 24.2078 134.028 37.3943C132.312 37.3133 130.587 37.2889 128.89 37.3227C126.179 37.3737 123.902 37.5566 122.473 37.7013C121.662 37.7819 120.83 37.8787 119.99 37.9896C106.151 25.6101 91.5404 17.5795 80.8218 11.6882C79.4687 10.9447 78.1866 10.2402 76.9881 9.57116C67.7182 4.39175 43.504 -1.91451 36.0709 0.551204C35.1551 0.854011 32.5996 2.50296 30.9406 6.64803C24.9308 21.662 20.0142 62.1417 44.4207 107.883C45.5785 110.051 47.525 125.658 46.3607 139.157C46.1924 141.132 46.1568 141.81 46.1474 142.433C46.0703 147.47 45.9097 157.952 64.2961 174.085C68.3509 177.647 71.7267 180.457 75.4212 182.982C73.4379 187.065 72.1148 191.65 71.3232 194.968C70.9531 196.527 70.6292 198.391 70.3157 200.194C69.958 202.253 69.4444 205.206 68.9754 206.516C68.4511 206.484 67.7203 206.499 66.7634 206.745C65.9003 206.961 63.8793 207.469 62.8192 209.453C62.4979 210.071 61.8314 211.685 62.5801 213.32C62.7665 213.726 63.1006 214.454 63.6746 215.116C63.6647 215.207 63.6562 215.299 63.6493 215.393C63.606 216.04 63.7418 216.92 64.0931 217.813C62.8286 217.358 61.5817 216.869 60.3609 216.35L60.1531 216.262C60.1021 216.239 60.0507 216.217 59.9985 216.194L59.906 216.153C59.5718 216.011 59.2373 215.864 58.8861 215.703C57.03 214.869 55.1894 213.943 53.4152 212.951C49.4645 210.745 44.4695 206.844 39.7132 202.25C37.6138 200.216 35.6323 198.12 33.8191 196.013C33.5535 195.706 33.2926 195.396 33.0206 195.064C31.0806 192.746 29.3522 190.417 27.883 188.141C23.6449 181.577 21.7276 175.667 22.3385 171.052C22.7707 167.784 24.2626 166.134 25.9901 164.224C26.9321 163.182 27.9061 162.105 28.7628 160.728C30.2376 158.358 30.3216 155.136 28.9924 151.887C27.4941 148.225 24.6468 145.404 21.7383 144.7C11.9064 142.321 5.85902 151.897 3.5832 155.503C-1.73947 163.931 -0.0946057 178.723 1.91906 184.409C8.69597 203.511 23.9808 214.033 29.7343 217.994C50.8614 232.545 74.0505 235.503 90.2451 235.327C92.4635 240.144 94.2523 243.452 95.9794 245.942C97.5741 248.251 99.1809 249.971 101.042 251.339C100.387 253.357 100.193 255.722 100.966 257.405C101.486 258.538 102.405 259.303 103.558 259.559C104.317 259.726 105.089 259.705 105.867 259.495C106.54 260.003 107.485 260.407 108.807 260.475C109.802 260.527 110.761 260.185 111.581 259.525C112.563 259.819 113.671 259.864 114.651 259.588C116.653 259.025 117.849 256.963 117.849 254.075C117.849 252.917 117.661 251.751 117.315 250.696C117.91 250.083 118.406 249.347 118.802 248.491C119.433 248.683 120.127 248.8 120.741 248.871C122.297 250.178 124.169 250.477 125.167 250.438C126.401 250.477 128.031 249.787 129.193 248.385C130.187 248.176 131.326 247.692 132.373 246.969C133.129 248.208 134.12 249.365 135.235 250.295C134.295 252.328 134.012 254.821 134.621 256.738C135.098 258.238 136.135 259.267 137.469 259.563C138.202 259.724 138.944 259.71 139.692 259.522C140.461 260.146 141.453 260.482 142.594 260.482C143.856 260.482 145.006 260.043 145.894 259.267C146.799 259.63 147.855 259.815 148.909 259.474C149.629 259.24 150.914 258.534 151.419 256.431C151.858 254.606 151.593 251.945 150.558 249.791C157.104 244.432 165.647 228.451 167.199 212.629C167.539 212.953 167.879 213.272 168.212 213.581C169.196 214.494 169.956 215.161 170.544 215.652C169.761 217.354 169.378 219.525 169.7 221.187C170.039 222.945 171.131 224.236 172.688 224.729C173.678 225.044 174.777 225.041 175.827 224.738C175.917 224.79 176.011 224.839 176.107 224.885C177.976 225.991 180.912 225.726 182.641 224.259C182.973 223.976 183.268 223.654 183.521 223.301C183.674 223.295 183.826 223.284 183.979 223.268C187.612 222.883 189.175 219.116 189.029 217.119C189.022 217.027 189.015 216.936 189.004 216.846C189.579 216.184 189.913 215.456 190.1 215.049C190.845 213.421 190.183 211.807 189.848 211.16C188.8 209.2 186.779 208.691 185.926 208.477C185.059 208.254 184.377 208.22 183.87 208.238C183.675 207.25 183.532 205.543 183.42 204.212C183.237 202.027 183.029 199.55 182.541 197.445C181.547 193.155 180.541 189.43 179.541 186.325C186.681 181.953 191.429 176.827 193.662 171.07C196.76 163.078 196.798 150.571 196.283 141.487C196.105 138.332 197.219 136.368 198.629 133.881C199.978 131.501 201.508 128.803 202.139 124.69C202.563 121.93 202.732 118.186 202.617 114.108C206.627 103.616 208.694 94.357 210.359 86.8986C210.876 84.582 211.364 82.3942 211.863 80.3778C214.525 69.6027 215.601 52.5671 214.671 35.9192L214.672 35.9205ZM82.1373 213.922C82.5656 213.564 83.0869 213.111 83.7222 212.536C83.9025 212.373 84.088 212.204 84.2769 212.029C84.5039 215.469 84.9781 218.858 85.6947 222.158C84.3977 222.084 83.1032 221.978 81.8147 221.842C82.3913 221.218 82.7939 220.408 82.9781 219.462C83.3015 217.802 82.9203 215.627 82.1373 213.922Z" fill="#F5F1F0"/>
<path d="M212.961 36.0145C212.014 19.0607 209.254 6.61139 205.577 2.71217C201.568 -1.53784 175.734 9.70799 175.474 9.82191C168.585 12.8346 146.42 25.958 134.75 39.1582C132.798 39.046 130.852 38.9984 128.92 39.034C126.826 39.0734 124.713 39.1985 122.64 39.4057C121.57 39.5128 120.503 39.6495 119.439 39.8006C105.579 27.2549 90.8092 19.134 80.0139 13.1995C78.6505 12.45 77.359 11.7398 76.151 11.0657C66.6623 5.76679 40.6495 -1.58323 35.173 3.02525C33.311 4.59197 28.3893 16.4725 27.8178 35.2307C27.3197 51.5891 30.0577 77.3324 45.9314 107.076C47.3621 109.757 49.2156 126.008 48.0685 139.302C47.9053 141.195 47.8693 141.872 47.8599 142.457C47.7793 147.602 47.6286 157.179 65.4247 172.8C69.569 176.438 73.3586 179.606 77.6468 182.403C75.3496 186.637 73.8495 191.762 72.9907 195.364C72.633 196.872 72.313 198.709 72.0042 200.487C71.4773 203.518 70.6815 208.097 69.886 208.26C69.7031 208.298 69.5052 208.28 69.2546 208.256C68.7941 208.212 68.1632 208.154 67.1818 208.406C66.431 208.594 65.0332 208.946 64.3402 210.243C64.18 210.551 63.6921 211.631 64.138 212.606C64.3402 213.047 64.7805 214.006 65.5477 214.501C65.453 214.794 65.3866 215.126 65.3596 215.51C65.2808 216.626 66.2125 219.55 68.8815 219.834C69.0567 219.852 69.2319 219.861 69.4063 219.861C69.6517 219.861 69.8941 219.836 70.1353 219.799C70.23 220.028 70.3371 220.249 70.4694 220.443C70.5791 220.62 70.708 220.787 70.8652 220.954C70.9569 221.05 71.0481 221.136 71.1518 221.226C71.829 221.799 72.8823 222.118 73.8855 222.118C74.388 222.118 74.8776 222.038 75.3012 221.87C75.4644 221.808 75.6216 221.731 75.7685 221.638C76.0924 221.496 76.3515 221.295 76.5494 221.043C77.1538 221.353 77.8036 221.523 78.4341 221.523C78.7909 221.523 79.1405 221.471 79.4695 221.366C80.4427 221.058 81.0753 220.285 81.2985 219.13C81.6549 217.288 80.8654 214.713 79.9017 213.492C81.2501 212.554 83.8772 210.11 85.8463 208.157C85.9093 213.159 86.4927 218.082 87.5965 222.803C87.6861 223.187 87.782 223.573 87.8797 223.959C84.2901 223.852 80.7104 223.52 77.2249 222.955L75.3055 222.597C75.2305 222.584 75.153 222.568 75.0725 222.552L74.9872 222.535C74.9517 222.53 74.9187 222.522 74.8476 222.505C74.0556 222.341 73.1457 222.155 72.5174 222.025C72.0882 221.937 71.7913 221.876 71.7609 221.87C71.3771 221.78 69.2722 221.24 68.5971 221.049L68.3782 220.988C67.7678 220.817 67.1193 220.623 66.395 220.396C64.1127 219.679 61.8605 218.85 59.699 217.93L59.4716 217.835C59.4206 217.81 59.3692 217.788 59.3169 217.766L59.2342 217.729C58.8864 217.581 58.5386 217.428 58.1839 217.266C56.2821 216.411 54.3969 215.463 52.5798 214.447C48.505 212.172 43.3806 208.175 38.5206 203.481C36.384 201.411 34.3669 199.277 32.5237 197.135C32.2478 196.817 31.9763 196.494 31.706 196.164C29.7206 193.792 27.9498 191.406 26.4428 189.071C21.9811 182.16 19.9743 175.851 20.6391 170.827C21.1416 167.03 22.8794 165.108 24.7192 163.074C25.6106 162.089 26.5324 161.069 27.3077 159.823C28.4886 157.925 28.5242 155.269 27.4058 152.535C26.1289 149.415 23.689 146.935 21.3348 146.365C12.6958 144.27 7.32476 152.783 5.03138 156.416C0.250148 163.988 1.49365 178.076 3.53345 183.836C6.31729 191.682 10.8869 198.927 17.1155 205.368C22.493 210.928 27.8354 214.607 30.7058 216.583C50.8819 230.479 72.9962 233.621 88.8546 233.621C89.7019 233.621 90.5294 233.611 91.3403 233.594C95.9343 243.726 98.9581 248.08 103.137 250.689C102.269 252.526 101.818 255.153 102.524 256.69C102.819 257.334 103.304 257.747 103.926 257.885C104.137 257.932 104.351 257.955 104.569 257.955C105.126 257.955 105.704 257.794 106.294 257.49C106.82 258.273 107.693 258.703 108.892 258.766C108.928 258.768 108.964 258.769 109.001 258.769C109.783 258.769 110.542 258.327 111.149 257.515C111.158 257.503 111.165 257.49 111.174 257.478C111.713 257.838 112.516 258.056 113.28 258.056C113.596 258.056 113.905 258.019 114.186 257.94C114.876 257.745 115.418 257.199 115.752 256.361C116.415 254.699 116.184 252.021 115.257 250.183C116.488 249.359 117.325 248.041 117.798 246.171C118.208 246.423 118.663 246.642 119.168 246.81C119.918 247.06 120.707 247.203 121.514 247.244C122.694 248.445 124.255 248.73 124.994 248.73C125.056 248.73 125.107 248.727 125.157 248.723C125.181 248.725 125.205 248.727 125.233 248.727C125.704 248.727 126.58 248.49 127.39 247.789C127.663 247.552 127.959 247.227 128.222 246.804C128.804 246.794 129.72 246.507 130.606 246.037C131.239 245.702 132.177 245.095 132.928 244.161C133.653 246.285 135.423 248.574 137.534 249.836C136.074 251.554 135.652 254.277 136.129 255.992C136.419 257.036 137.026 257.71 137.838 257.89C138.049 257.936 138.263 257.959 138.481 257.959C139.033 257.959 139.605 257.802 140.189 257.504C140.224 257.565 140.261 257.625 140.301 257.683C140.647 258.178 141.325 258.769 142.594 258.769C143.7 258.769 144.65 258.29 145.271 257.419C145.342 257.32 145.405 257.215 145.465 257.108C146.077 257.514 146.914 257.942 147.737 257.942C147.954 257.942 148.171 257.912 148.381 257.844C149.062 257.622 149.543 256.972 149.77 255.961C150.191 254.085 149.66 251.085 148.267 249.324C148.309 249.299 148.353 249.277 148.395 249.25C154.237 245.577 165.302 227.123 165.714 208.754C167.75 210.848 171.196 214.111 172.782 215.22C171.818 216.44 171.027 219.017 171.384 220.861C171.607 222.015 172.239 222.788 173.212 223.096C173.542 223.202 173.891 223.253 174.249 223.253C174.881 223.253 175.533 223.082 176.139 222.77C176.337 223.022 176.592 223.229 176.914 223.367C177.419 223.69 178.098 223.845 178.803 223.845C179.797 223.845 180.846 223.536 181.531 222.954C181.978 222.573 182.32 222.083 182.548 221.529C182.788 221.566 183.03 221.591 183.275 221.591C183.449 221.591 183.625 221.582 183.801 221.563C186.47 221.28 187.401 218.356 187.323 217.239C187.296 216.855 187.229 216.522 187.135 216.229C187.795 215.809 188.217 215.049 188.545 214.334C188.992 213.358 188.503 212.278 188.34 211.967C187.65 210.674 186.252 210.323 185.503 210.135C184.519 209.883 183.889 209.941 183.428 209.984C183.178 210.008 182.98 210.026 182.797 209.989C182.177 209.862 181.91 206.678 181.715 204.354C181.537 202.226 181.334 199.815 180.875 197.831C179.747 192.96 178.604 188.829 177.475 185.529C183.897 181.803 189.577 176.868 192.065 170.451C195.055 162.739 195.08 150.495 194.575 141.582C194.368 137.925 195.653 135.659 197.14 133.036C198.417 130.784 199.864 128.232 200.447 124.43C200.82 121.995 201.008 118.48 200.905 114.378C205.207 103.67 206.977 95.1016 208.539 87.5426C209.09 84.8756 209.61 82.3568 210.201 79.9664C212.825 69.3455 213.882 52.504 212.961 36.0145ZM31.1915 215.877C25.6251 212.045 10.8389 201.865 4.34088 183.549C2.35077 177.931 1.12227 164.211 5.75572 156.874C9.17138 151.461 14.0066 145.472 21.133 147.197C23.2002 147.698 25.4533 150.026 26.6129 152.859C27.6259 155.335 27.6139 157.709 26.5799 159.37C25.8449 160.552 24.9492 161.542 24.0831 162.499C22.236 164.542 20.3264 166.653 19.7893 170.715C19.0885 176.011 21.0799 182.334 25.7061 189.509L22.2493 191.397C21.8895 191.654 21.6496 192.035 21.5854 192.472C21.5168 192.905 21.6239 193.337 21.8852 193.689L25.1492 198.203C25.2777 198.378 25.4362 198.524 25.6118 198.631C26.1558 198.965 26.8626 198.969 27.4109 198.588L30.9889 196.641C31.0078 196.664 31.0262 196.687 31.0455 196.71C31.3055 197.027 31.5693 197.34 31.8366 197.649L28.4818 199.758C28.1605 200.057 27.9763 200.464 27.9592 200.901C27.9463 201.342 28.1091 201.762 28.4132 202.079L32.217 206.148C32.3155 206.255 32.4269 206.345 32.5468 206.418C33.1508 206.79 33.9475 206.743 34.5001 206.259L37.872 204.044C37.8896 204.061 37.9067 204.079 37.9243 204.095C42.8358 208.84 48.0248 212.884 52.1613 215.194C53.9998 216.222 55.9077 217.182 57.8288 218.045C57.8455 218.053 57.8614 218.059 57.8781 218.067C57.8661 218.112 57.8528 218.153 57.8408 218.2L57.7723 218.452L57.2925 221.797C57.1555 222.196 57.1726 222.628 57.3482 223.014C57.4853 223.314 57.6995 223.558 57.9736 223.725C58.0636 223.78 58.1621 223.832 58.2649 223.866L63.4651 225.862C64.3089 226.187 65.2641 225.759 65.5897 224.911L65.6154 224.813L66.1971 221.231C66.9056 221.453 67.5447 221.643 68.1413 221.81L68.188 221.823L67.6749 225.193C67.5721 225.6 67.6235 226.033 67.8291 226.401C67.9918 226.688 68.2274 226.915 68.5144 227.056C68.6087 227.104 68.7115 227.146 68.8143 227.172L74.1644 228.303C75.0339 228.555 75.9463 228.05 76.2033 227.176L76.2204 227.078L76.8214 223.753L77.0943 223.8C80.6928 224.385 84.3972 224.728 88.1071 224.828C88.422 226.002 88.7689 227.18 89.1523 228.347C89.169 228.398 89.5717 229.615 90.4566 231.62C90.6254 232.002 90.7916 232.376 90.9561 232.743C75.108 233.023 52.0937 230.272 31.1915 215.877ZM114.956 256.042C114.721 256.632 114.383 256.992 113.953 257.114C113.132 257.345 112.093 257.079 111.615 256.741C111.988 255.967 112.13 255.147 111.945 254.623C111.865 254.4 111.622 254.285 111.398 254.362C111.175 254.441 111.058 254.685 111.137 254.908C111.272 255.291 111.028 256.244 110.462 257.002C110.197 257.356 109.651 257.952 108.936 257.91C108.016 257.862 107.363 257.556 106.996 257C106.936 256.907 106.886 256.81 106.843 256.71C106.838 256.699 106.837 256.688 106.831 256.678C106.829 256.676 106.827 256.675 106.826 256.673C106.517 255.919 106.655 255.015 106.737 254.792C106.819 254.57 106.706 254.324 106.483 254.242C106.261 254.16 106.016 254.274 105.933 254.496C105.842 254.742 105.638 255.74 105.934 256.718C105.284 257.06 104.673 257.172 104.111 257.048C103.751 256.968 103.487 256.734 103.302 256.332C102.774 255.182 103.04 252.92 103.883 251.114C105.125 251.742 106.748 252.12 108.521 252.12C110.451 252.12 112.55 251.667 114.515 250.618C115.312 252.236 115.524 254.62 114.956 256.042ZM148.934 255.773C148.844 256.172 148.619 256.866 148.117 257.029C147.363 257.271 146.334 256.669 145.804 256.303C146.007 255.601 146.016 254.848 145.797 254.213C145.72 253.99 145.477 253.87 145.253 253.948C145.029 254.025 144.91 254.268 144.987 254.492C145.24 255.227 145.07 256.226 144.574 256.922C144.251 257.373 143.646 257.912 142.594 257.912C141.865 257.912 141.346 257.678 141.009 257.199C140.42 256.361 140.573 255.009 140.65 254.796C140.731 254.575 140.618 254.328 140.396 254.246C140.174 254.166 139.928 254.278 139.846 254.5C139.746 254.771 139.6 255.752 139.862 256.715C139.205 257.063 138.588 257.176 138.023 257.053C137.398 256.915 137.097 256.275 136.954 255.762C136.523 254.208 136.977 251.686 138.318 250.245C138.828 250.477 139.35 250.653 139.877 250.741C140.737 250.883 141.562 250.955 142.357 250.955C144.235 250.955 145.939 250.551 147.511 249.747C148.785 251.247 149.319 254.058 148.934 255.774L148.934 255.773ZM180.039 198.025C180.485 199.949 180.685 202.327 180.861 204.426C181.2 208.465 181.432 210.584 182.624 210.828C182.931 210.891 183.21 210.865 183.507 210.838C183.95 210.796 184.45 210.75 185.291 210.965C185.957 211.133 187.072 211.413 187.581 212.367C187.663 212.524 188.057 213.339 187.765 213.977C187.604 214.327 187.259 215.073 186.751 215.451C186.193 214.66 185.315 214.347 184.455 214.163C184.223 214.115 183.996 214.261 183.946 214.494C183.898 214.725 184.045 214.952 184.277 215.002C185.581 215.279 186.358 215.745 186.468 217.3C186.512 217.93 185.909 220.478 183.71 220.712C183.399 220.745 183.091 220.739 182.788 220.702C182.918 219.919 182.804 219.125 182.448 218.467C182.336 218.259 182.077 218.18 181.868 218.294C181.66 218.406 181.582 218.666 181.695 218.874C182.014 219.465 182.075 220.213 181.863 220.924C181.699 221.471 181.392 221.947 180.977 222.301C180.08 223.063 178.251 223.229 177.354 222.632C177.33 222.616 177.305 222.603 177.279 222.592C176.948 222.456 176.737 222.237 176.634 221.923C176.377 221.139 176.831 220.006 177.09 219.58C177.214 219.377 177.15 219.114 176.948 218.991C176.747 218.868 176.482 218.932 176.359 219.134C176.095 219.566 175.518 220.877 175.779 222C175.023 222.399 174.18 222.506 173.472 222.28C172.807 222.069 172.387 221.537 172.225 220.698C171.863 218.827 172.887 216.155 173.722 215.468C173.728 215.463 173.73 215.456 173.736 215.45C173.766 215.423 173.792 215.391 173.813 215.355C173.848 215.297 173.869 215.236 173.875 215.171C173.875 215.164 173.872 215.157 173.872 215.151C173.874 215.103 173.87 215.055 173.856 215.008C173.852 214.996 173.843 214.987 173.839 214.976C173.823 214.937 173.807 214.899 173.779 214.865C173.741 214.818 173.694 214.782 173.643 214.757C172.447 214.141 167.937 209.884 165.73 207.534C165.716 203.846 165.257 200.661 164.361 198.07C164.283 197.847 164.038 197.729 163.816 197.806C163.593 197.883 163.473 198.127 163.551 198.351C164.43 200.892 164.876 204.038 164.877 207.704C164.877 207.705 164.877 207.705 164.877 207.706C164.877 207.707 164.877 207.707 164.877 207.708C164.876 226.128 153.755 244.868 147.939 248.524C147.827 248.595 147.71 248.652 147.597 248.718C147.458 248.692 147.312 248.727 147.209 248.838C147.166 248.882 147.137 248.934 147.118 248.988C145.046 250.044 142.714 250.342 140.017 249.895C137.06 249.403 134.154 245.936 133.547 243.212C133.708 242.9 133.847 242.563 133.947 242.198C134.01 241.97 133.876 241.734 133.648 241.671C133.42 241.608 133.184 241.742 133.122 241.97C132.452 244.402 129.838 245.59 128.661 245.881C128.831 245.401 128.951 244.844 128.979 244.184C128.989 243.947 128.805 243.748 128.569 243.738C128.338 243.723 128.133 243.911 128.123 244.148C128.056 245.752 127.382 246.66 126.829 247.14C126.124 247.75 125.387 247.888 125.203 247.867C125.191 247.866 125.18 247.871 125.167 247.871C125.151 247.871 125.137 247.865 125.12 247.867C124.375 247.935 121.489 247.516 120.955 244.161C120.917 243.927 120.702 243.767 120.464 243.805C120.231 243.842 120.071 244.062 120.109 244.295C120.238 245.106 120.489 245.766 120.809 246.314C120.341 246.246 119.882 246.144 119.439 245.996C117.013 245.19 115.896 243.064 115.296 241.921C115.204 241.748 115.126 241.599 115.057 241.481C114.938 241.275 114.674 241.206 114.472 241.326C114.267 241.444 114.197 241.706 114.317 241.911C114.38 242.021 114.453 242.159 114.537 242.32C114.961 243.127 115.705 244.54 117.045 245.633C116.617 247.569 115.814 248.874 114.588 249.603C110.828 251.842 106.282 251.561 103.914 250.159C99.4687 247.522 96.3897 242.933 91.2414 231.274C90.3752 229.312 89.9709 228.092 89.967 228.08C89.5626 226.85 89.1986 225.608 88.8717 224.37L88.8829 223.99L88.7689 223.988C88.6503 223.527 88.5372 223.067 88.4305 222.608C87.2658 217.629 86.6803 212.423 86.6901 207.135C86.6901 207.132 86.6901 207.128 86.6901 207.125C86.6901 206.189 86.7103 205.239 86.7493 204.302C86.8636 201.532 87.1181 199.814 87.4123 197.823L87.4817 197.353C87.5164 197.118 87.3545 196.901 87.1202 196.867C86.8876 196.829 86.6687 196.994 86.634 197.228L86.5646 197.697C86.2665 199.712 86.0091 201.452 85.893 204.267C85.8553 205.159 85.8369 206.062 85.8347 206.955C83.3058 209.511 80.0126 212.524 79.0394 213.025C78.988 213.051 78.9409 213.087 78.9019 213.135C78.8788 213.163 78.8672 213.196 78.8522 213.228C78.8441 213.245 78.8308 213.26 78.8248 213.278C78.8132 213.315 78.8132 213.352 78.8115 213.389C78.8107 213.407 78.8051 213.425 78.8064 213.443C78.8107 213.492 78.8257 213.54 78.8466 213.585C78.8492 213.591 78.8488 213.597 78.8518 213.603C78.8531 213.606 78.8561 213.608 78.8578 213.611C78.8818 213.655 78.9135 213.692 78.9494 213.724C78.9537 213.728 78.9559 213.734 78.9606 213.738C79.7954 214.425 80.8188 217.097 80.4572 218.968C80.2949 219.807 79.8755 220.339 79.2094 220.55C78.504 220.774 77.6653 220.67 76.9126 220.274C77.1705 219.156 76.5965 217.853 76.3224 217.403C76.199 217.201 75.9356 217.136 75.7334 217.26C75.5312 217.383 75.4674 217.647 75.5908 217.849C75.8623 218.294 76.3442 219.53 76.0191 220.282C75.9874 220.345 75.9566 220.405 75.921 220.459C75.8058 220.632 75.6353 220.764 75.3997 220.863C75.3762 220.873 75.3535 220.886 75.332 220.9C75.2301 220.966 75.1157 221.024 74.9928 221.07C73.9977 221.466 72.4916 221.238 71.7082 220.574C71.6294 220.506 71.5579 220.439 71.4885 220.365C71.3719 220.241 71.2769 220.119 71.1882 219.977C71.0276 219.74 70.9038 219.477 70.8202 219.196C70.6082 218.483 70.6695 217.735 70.9881 217.144C71.1004 216.936 71.0228 216.676 70.8142 216.564C70.6061 216.451 70.3461 216.53 70.2338 216.738C69.8796 217.395 69.7648 218.188 69.8946 218.972C69.5909 219.01 69.2825 219.015 68.9723 218.981C66.7728 218.748 66.1701 216.2 66.2146 215.569C66.3243 214.014 67.1009 213.549 68.4056 213.272C68.6369 213.222 68.7847 212.995 68.7355 212.763C68.6862 212.532 68.4579 212.383 68.227 212.433C67.3673 212.616 66.4883 212.929 65.9306 213.721C65.4222 213.342 65.0774 212.597 64.9172 212.248C64.6254 211.612 65.0187 210.794 65.0983 210.641C65.6102 209.683 66.7248 209.403 67.3926 209.235C68.2313 209.019 68.7325 209.067 69.1749 209.108C69.4705 209.136 69.7498 209.162 70.0582 209.099C71.3595 208.832 71.9665 205.708 72.8485 200.633C73.1552 198.868 73.4726 197.043 73.8242 195.561C74.5152 192.663 76.0127 187.24 78.369 182.868C85.8639 187.62 94.9903 191.282 110.153 194.343C118.597 196.047 126.277 196.655 132.943 196.655C144.621 196.655 153.184 194.786 157.277 193.662C162.65 192.185 170.029 189.717 176.718 185.966C177.819 189.212 178.936 193.259 180.039 198.025ZM209.369 79.7609C208.774 82.1675 208.253 84.694 207.7 87.3691C206.235 94.457 204.585 102.437 200.827 112.231C200.614 107.783 200.069 102.791 199.074 97.7986C197.334 89.072 193.657 77.4943 186.023 71.8943C185.832 71.7542 185.564 71.7958 185.424 71.9864C185.284 72.177 185.325 72.4451 185.516 72.5847C199.219 82.636 201.171 114.055 199.6 124.3C199.041 127.947 197.696 130.319 196.395 132.614C194.905 135.241 193.498 137.722 193.72 141.631C194.427 154.112 193.556 164.237 191.266 170.142C186.247 183.087 167.675 189.917 157.051 192.836C150.681 194.585 133.378 198.155 110.324 193.503C86.0836 188.611 77.404 182.175 65.9906 172.155C59.8751 166.788 48.4921 156.795 48.7174 142.47C48.7264 141.904 48.762 141.243 48.9226 139.375C50.1254 125.44 48.14 109.392 46.6883 106.672C30.9037 77.0947 28.1802 51.5103 28.6754 35.256C29.2382 16.7668 33.9475 5.17617 35.726 3.67969C40.7805 -0.57245 66.3491 6.57156 75.7342 11.8126C76.9435 12.4881 78.2367 13.1986 79.6022 13.9494C90.2223 19.7876 104.702 27.7513 118.334 39.9587C113.864 40.6577 109.464 41.7404 105.206 43.1953C104.982 43.272 104.862 43.5153 104.939 43.7393C105 43.9174 105.166 44.0292 105.344 44.0292C105.39 44.0292 105.437 44.0215 105.483 44.0061C111.041 42.107 116.842 40.8461 122.726 40.2581C124.776 40.0529 126.866 39.9291 128.937 39.8906C135.368 39.7698 141.938 40.4825 148.469 42.0077C148.699 42.0625 148.93 41.9186 148.984 41.6881C149.038 41.4577 148.895 41.2273 148.664 41.1738C144.391 40.1758 140.102 39.5291 135.844 39.225C147.394 26.4673 169.285 13.4629 175.818 10.6061C185.676 6.28888 202.303 0.487159 204.955 3.29936C212.375 11.1698 215.015 56.9034 209.369 79.7609Z" fill="black"/>
<path d="M108.464 103.852C95.3594 103.852 84.6982 114.512 84.6982 127.615C84.6982 140.718 95.3599 151.378 108.464 151.378C121.569 151.378 132.23 140.718 132.23 127.615C132.23 114.513 121.568 103.852 108.464 103.852ZM108.464 150.522C95.8319 150.522 85.5549 140.246 85.5549 127.616C85.5549 114.985 95.8319 104.709 108.464 104.709C121.097 104.709 131.373 114.985 131.373 127.616C131.373 140.246 121.096 150.522 108.464 150.522Z" fill="black"/>
<path d="M108.392 121.774C107.512 121.774 106.568 123.658 106.387 124.036C105.961 124.93 105.245 126.767 105.247 129.038C105.249 132.325 107.224 135.097 108.464 135.097C109.778 135.097 111.649 132.126 111.69 129.202C111.731 126.287 110.339 123.302 109.319 122.268C108.991 121.935 108.688 121.774 108.392 121.774H108.392Z" fill="black"/>
<path d="M99.5931 83.1935C110.544 84.8772 124.714 92.3865 130.841 96.9312C130.917 96.9873 131.007 97.0156 131.098 97.0156C131.176 97.0156 131.254 96.9946 131.323 96.9518C131.877 96.61 132.068 91.3513 131.623 88.8244C131.222 85.1988 107.945 73.9033 100.874 73.9033C95.8103 73.9033 90.0979 77.2423 83.8954 83.8278C79.3103 88.6959 76.1461 93.632 76.1149 93.6813C76.0078 93.8496 76.0309 94.0697 76.171 94.2124C76.6216 94.6689 77.1146 94.2303 78.9501 92.596C82.8596 89.1152 90.9987 81.8718 99.5931 83.1935Z" fill="black"/>
<path d="M134.726 94.3698C134.488 94.3467 134.28 94.5163 134.256 94.7514C134.134 95.9134 133.916 97.4497 133.7 97.9555C133.377 98.7131 131.86 99.2909 131.014 99.5128C130.785 99.5727 130.648 99.807 130.709 100.036C130.759 100.228 130.932 100.355 131.122 100.355C131.158 100.355 131.195 100.351 131.232 100.341C131.861 100.176 133.955 99.5398 134.489 98.2913C134.798 97.5657 135.025 95.6363 135.108 94.8401C135.133 94.6049 134.962 94.3942 134.726 94.3694V94.3698Z" fill="black"/>
<path d="M149.835 166.226C148.006 166.128 145.935 166.125 144.432 166.218C141.925 166.373 141.572 166.731 141.439 167.055C141.197 167.64 141.463 168.497 142.251 169.676C143.342 171.308 145.713 173.793 146.978 174.333C146.985 174.704 146.987 174.782 146.991 175.109L146.995 175.329C146.25 175.61 145.651 175.843 145.123 176.048C143.646 176.624 142.67 177.004 140.119 177.783C139.892 177.852 139.765 178.091 139.834 178.318C139.89 178.502 140.06 178.621 140.244 178.621C140.285 178.621 140.327 178.615 140.369 178.602C142.951 177.815 143.939 177.429 145.434 176.846C145.988 176.63 146.618 176.385 147.419 176.084C147.968 176.383 148.429 176.643 148.859 176.884C149.724 177.371 150.471 177.79 151.623 178.367C151.685 178.397 151.75 178.412 151.814 178.412C151.971 178.412 152.123 178.325 152.198 178.175C152.304 177.963 152.218 177.706 152.007 177.6C150.873 177.034 150.135 176.618 149.279 176.137C148.853 175.897 148.394 175.64 147.852 175.344L147.849 175.096C147.844 174.764 147.843 174.687 147.835 174.298C149.116 173.615 151.886 170.633 152.889 168.91C153.426 167.99 153.554 167.347 153.294 166.889C153.176 166.681 153.014 166.396 149.836 166.225L149.835 166.226ZM152.44 167.902C151.667 169.798 148.079 173.316 147.384 173.583C146.752 173.45 143.957 170.899 142.706 168.794C142.196 167.936 142.192 167.555 142.217 167.427C143.163 166.805 151.331 166.947 152.563 167.384C152.569 167.464 152.554 167.622 152.44 167.902Z" fill="black"/>
<path d="M176.979 121.203C173.822 124.639 169.893 128.915 163.199 133.197C161.902 134.027 159.5 139.962 158.069 144.984C158.008 145.199 158.083 145.411 158.261 145.523C158.327 145.564 158.387 145.601 158.479 145.601C158.698 145.601 159.105 145.386 160.211 144.508C160.105 147.316 161.395 149.138 162.393 149.715C163.283 150.229 164.38 150.472 165.623 150.472C170.622 150.472 177.976 146.54 183.612 140.454C187.153 136.622 190.082 130.434 188.831 126.024C188.376 124.423 187.147 123.326 185.087 122.682C185.604 122.235 186.073 121.836 186.475 121.498C188.628 119.693 194.39 118.534 194.924 118.568C195.196 118.599 195.333 118.467 195.393 118.386C195.484 118.262 195.501 118.08 195.437 117.939C195.184 117.379 191.028 115.679 186.393 115.248C182.761 114.91 180.46 117.415 176.978 121.204L176.979 121.203ZM188.007 126.258C188.889 129.367 187.447 135.042 182.984 139.872C177.063 146.267 167.328 151.577 162.822 148.973C162.094 148.553 160.737 146.728 161.133 143.758C162.244 142.836 163.828 141.473 166.106 139.474C166.572 141.872 167.893 143.783 168.896 143.783C170.105 143.783 171.828 140.812 171.867 137.886C171.878 136.9 171.735 135.814 171.459 134.745C172.604 133.729 173.85 132.621 175.21 131.41C178.629 128.365 181.905 125.448 184.31 123.356C186.414 123.893 187.597 124.816 188.007 126.258Z" fill="black"/>
<path d="M75.2187 32.5037L70.0262 24.0517C69.9131 23.871 69.7422 23.7301 69.5495 23.6568L48.4272 15.4198C47.9508 15.2309 47.4287 15.275 46.9918 15.541C46.5518 15.8095 46.2696 16.2571 46.2186 16.7715L44.0417 39.3051C44.0096 39.5253 44.0597 39.748 44.1809 39.939L49.3772 48.3975C49.6034 48.7499 50.027 48.92 50.4335 48.8215C50.8358 48.723 51.1313 48.3816 51.1694 47.97L52.5697 32.8507L63.6652 50.8987C63.7805 51.0799 63.9445 51.2144 64.1347 51.2829C64.205 51.312 64.2795 51.3326 64.3545 51.3433C64.5695 51.3746 64.7961 51.3292 64.9987 51.2084L70.7017 47.7053C70.918 47.5648 71.0727 47.3383 71.1254 47.0851C71.1781 46.8337 71.1314 46.5785 71.0046 46.3857L59.9125 28.3334L74.039 33.9141C74.4305 34.067 74.8661 33.9548 75.1343 33.6366C75.4033 33.3149 75.4371 32.8597 75.2178 32.5025L75.2191 32.5042L75.2187 32.5037Z" fill="black"/>
<path d="M200.1 19.562C200.015 19.0571 199.707 18.6331 199.253 18.3971C198.795 18.1598 198.266 18.1504 197.799 18.3735L177.397 28.1897C177.192 28.2766 177.028 28.4347 176.927 28.6372L172.385 37.464C172.201 37.8401 172.275 38.2907 172.57 38.587C172.863 38.88 173.308 38.9558 173.679 38.7751L187.337 32.1373L177.65 50.9786C177.555 51.1709 177.525 51.3812 177.565 51.579C177.577 51.654 177.598 51.7285 177.627 51.7983C177.712 51.9983 177.868 52.1688 178.076 52.2793L184.028 55.3408C184.26 55.4526 184.534 55.468 184.778 55.3815C185.02 55.2962 185.215 55.1241 185.313 54.9159L195.006 36.0751L197.554 51.0475C197.625 51.4617 197.948 51.7756 198.359 51.8403C198.773 51.9032 199.18 51.6964 199.372 51.3242L199.371 51.3259L203.91 42.5055C204.006 42.3154 204.038 42.0957 204.001 41.8931L200.1 19.562Z" fill="black"/>
<path d="M108.689 244.006C108.215 243.93 105.896 242.94 104.027 239.765C103.465 238.811 103.13 237.739 103.033 236.58C103.013 236.344 102.806 236.168 102.57 236.189C102.334 236.209 102.159 236.416 102.179 236.652C102.287 237.94 102.661 239.134 103.289 240.201C105.313 243.637 107.831 244.738 108.555 244.852C108.578 244.855 108.6 244.857 108.622 244.857C108.829 244.857 109.011 244.707 109.044 244.496C109.082 244.262 108.922 244.042 108.689 244.006Z" fill="black"/>
<path d="M104.158 215.32C104.214 215.32 104.271 215.309 104.325 215.286C104.543 215.194 104.645 214.942 104.553 214.725C103.847 213.057 102.998 209.382 104.298 206.185C104.387 205.965 104.282 205.715 104.063 205.626C103.843 205.538 103.594 205.642 103.504 205.862C102.099 209.319 103.006 213.27 103.763 215.059C103.832 215.222 103.991 215.32 104.158 215.32H104.158Z" fill="black"/>
<path d="M100.771 210.622C100.557 210.519 100.301 210.61 100.199 210.823C98.5999 214.159 99.4159 219.662 99.9333 220.341C100.018 220.452 100.149 220.512 100.281 220.512C100.371 220.512 100.461 220.485 100.537 220.426C100.725 220.283 100.765 220.019 100.622 219.831C100.348 219.379 99.4711 214.322 100.972 211.194C101.074 210.98 100.984 210.724 100.771 210.622Z" fill="black"/>
<path d="M146.192 209.727C146.253 209.756 146.317 209.771 146.38 209.771C146.539 209.771 146.691 209.683 146.765 209.531C147.206 208.632 148.534 205.379 147.108 201.22C147.031 200.997 146.788 200.878 146.564 200.954C146.34 201.031 146.221 201.274 146.298 201.498C147.617 205.344 146.4 208.33 145.996 209.154C145.892 209.366 145.979 209.623 146.192 209.727L146.192 209.727Z" fill="black"/>
<path d="M150.679 229.442C150.451 229.504 150.315 229.739 150.377 229.968C151.323 233.472 148.077 236.687 148.044 236.717C147.869 236.876 147.855 237.147 148.014 237.322C148.099 237.416 148.215 237.463 148.332 237.463C148.435 237.463 148.537 237.426 148.62 237.352C148.657 237.318 152.297 233.792 151.205 229.744C151.143 229.515 150.905 229.381 150.679 229.442Z" fill="black"/>
<path d="M108.753 240.333L108.715 240.246C108.622 240.028 108.368 239.927 108.153 240.022C107.936 240.115 107.835 240.366 107.928 240.584L107.965 240.67C108.349 241.568 108.875 242.799 110.029 243.754C111.182 244.707 113.506 246.077 114.575 246.316C114.606 246.324 114.638 246.327 114.669 246.327C114.866 246.327 115.042 246.192 115.087 245.992C115.139 245.761 114.994 245.533 114.763 245.481C113.912 245.29 111.72 244.041 110.576 243.094C109.581 242.271 109.122 241.196 108.753 240.333H108.753Z" fill="black"/>
<path d="M146.893 234.932C146.666 234.871 146.43 235.009 146.371 235.239C145.732 237.695 144.738 239.996 139.646 241.147C139.416 241.199 139.271 241.428 139.323 241.659C139.368 241.858 139.545 241.993 139.741 241.993C139.772 241.993 139.804 241.989 139.836 241.982C144.85 240.849 146.371 238.644 147.2 235.454C147.259 235.225 147.122 234.992 146.893 234.932Z" fill="black"/>
<path d="M150.289 207.189C150.265 206.973 150.242 206.764 150.226 206.561C150.207 206.325 150.004 206.152 149.765 206.168C149.529 206.187 149.353 206.393 149.372 206.629C149.389 206.84 149.413 207.058 149.438 207.282C149.624 208.963 149.855 211.054 147.138 214.267C146.986 214.447 147.008 214.718 147.189 214.87C147.269 214.938 147.367 214.971 147.465 214.971C147.587 214.971 147.708 214.92 147.793 214.82C150.748 211.326 150.482 208.935 150.289 207.189Z" fill="black"/>
<path d="M138.736 238.461C138.492 238.439 138.295 238.62 138.278 238.856C138.076 241.572 136.729 243.264 134.275 243.887C134.046 243.946 133.907 244.179 133.965 244.408C134.014 244.602 134.189 244.731 134.38 244.731C134.415 244.731 134.45 244.726 134.486 244.717C136.446 244.22 138.843 242.81 139.132 238.92C139.149 238.684 138.972 238.479 138.736 238.461V238.461Z" fill="black"/>
</svg>
