<svg width="1018" height="819" viewBox="0 0 1018 819" fill="none" xmlns="http://www.w3.org/2000/svg">
<path d="M290.157 512.336C289.961 512.336 289.763 512.325 289.564 512.302L269.966 509.988C239.878 506.437 211.459 503.083 203.571 502.032L199.76 501.531C194.945 500.898 190.119 500.263 185.294 499.624C182.222 499.225 179.137 498.823 176.051 498.412L163.127 496.714C160.389 496.353 158.463 493.84 158.825 491.102C159.187 488.365 161.702 486.442 164.437 486.8L177.367 488.499C180.447 488.909 183.522 489.309 186.597 489.709C191.432 490.351 196.253 490.984 201.064 491.616L204.884 492.119C212.706 493.161 242.411 496.667 271.138 500.057L290.738 502.371C293.481 502.695 295.441 505.182 295.116 507.924C294.815 510.467 292.656 512.336 290.157 512.336Z" fill="#F5F1F0"/>
<path d="M134.907 492.976C134.69 492.976 134.471 492.961 134.251 492.933L128.235 492.144C87.3807 486.788 45.1357 481.249 4.33868 475.801C1.60168 475.436 -0.321324 472.92 0.0446757 470.183C0.409676 467.447 2.92568 465.521 5.66268 465.889C46.4487 471.335 88.6867 476.873 129.536 482.229L135.552 483.017C138.29 483.376 140.219 485.887 139.86 488.625C139.53 491.142 137.381 492.976 134.909 492.976H134.907Z" fill="#F5F1F0"/>
<path d="M144.221 494.195C141.46 494.195 139.216 491.957 139.216 489.195C139.216 486.433 141.449 484.195 144.211 484.195H144.221C146.982 484.195 149.221 486.433 149.221 489.195C149.221 491.957 146.982 494.195 144.221 494.195Z" fill="#F5F1F0"/>
<path d="M1012.99 609.186C1012.77 609.186 1012.54 609.171 1012.32 609.141C968.378 603.283 934.945 599.124 902.613 595.103C870.093 591.059 836.467 586.877 792.21 580.971L683.8 566.501C659.616 563.271 630.53 559.177 602.403 555.218C592.186 553.78 581.963 552.341 571.928 550.937C569.194 550.554 567.286 548.027 567.669 545.291C568.053 542.558 570.574 540.654 573.315 541.032C583.351 542.437 593.578 543.877 603.796 545.315C631.907 549.271 660.976 553.363 685.123 556.588L793.497 571.053C837.746 576.957 871.35 581.137 903.847 585.179C936.201 589.202 969.656 593.363 1013.64 599.228C1016.38 599.593 1018.3 602.108 1017.94 604.845C1017.6 607.358 1015.46 609.185 1012.99 609.185L1012.99 609.186Z" fill="#F5F1F0"/>
<path d="M952.785 774.808C952.142 774.808 951.492 774.684 950.87 774.426L820.808 720.428C819.296 719.8 818.188 718.473 817.839 716.874C817.491 715.274 817.947 713.606 819.061 712.407L875.094 652.062C876.622 650.417 879.059 649.992 881.053 651.022C889.478 655.375 927.261 668.333 960.596 679.766C977.647 685.614 993.752 691.137 1005.12 695.224C1006.6 695.756 1007.74 696.953 1008.2 698.455C1008.67 699.957 1008.4 701.59 1007.47 702.862L956.836 772.74C955.872 774.07 954.352 774.806 952.785 774.806V774.808ZM831.277 713.947L951.056 763.676L995.457 702.403C984.845 698.657 971.42 694.052 957.351 689.227C925.552 678.321 892.779 667.081 879.951 661.53L831.277 713.948V713.947Z" fill="#F5F1F0"/>
<path d="M748.93 807.575C748.261 807.575 747.586 807.441 746.946 807.164L639.976 760.894C638.414 760.218 637.303 758.794 637.027 757.114C636.752 755.434 637.35 753.73 638.615 752.591L721.676 677.771C721.824 677.638 721.98 677.513 722.142 677.399L768.349 644.781C769.729 643.807 771.505 643.596 773.076 644.218L856.156 677.149C858.722 678.167 859.979 681.073 858.962 683.64C857.943 686.206 855.04 687.459 852.471 686.446L771.907 654.512L728.149 685.402L651.096 754.81L747.696 796.594L763.291 780.011C763.375 779.922 763.463 779.835 763.554 779.752L822.101 726.037L829.789 717.065C831.586 714.969 834.743 714.727 836.839 716.522C838.936 718.32 839.179 721.476 837.381 723.573L829.504 732.766C829.373 732.919 829.233 733.064 829.084 733.201L770.449 786.996L752.576 806.002C751.61 807.028 750.283 807.576 748.932 807.576L748.93 807.575Z" fill="#F5F1F0"/>
<path d="M810.58 807.575C809.901 807.575 809.219 807.437 808.573 807.154L764.923 788.014C762.394 786.906 761.242 783.956 762.352 781.427C763.46 778.899 766.408 777.747 768.939 778.856L809.624 796.695L862.941 748.378L824.779 733.056C822.217 732.028 820.973 729.116 822.003 726.553C823.031 723.991 825.94 722.747 828.506 723.777L874.085 742.077C875.684 742.719 876.84 744.139 877.144 745.835C877.448 747.531 876.857 749.265 875.58 750.422L813.94 806.281C813.002 807.131 811.799 807.576 810.582 807.576L810.58 807.575Z" fill="#F5F1F0"/>
<path d="M647.493 723.626C646.129 723.626 644.771 723.071 643.784 721.981C641.93 719.933 642.089 716.771 644.136 714.919L698.156 666.028C699.515 664.799 701.435 664.412 703.167 665.017L729.997 674.427C732.602 675.34 733.974 678.194 733.059 680.8C732.145 683.404 729.295 684.778 726.686 683.862L702.662 675.436L650.848 722.332C649.891 723.198 648.691 723.625 647.494 723.625L647.493 723.626Z" fill="#F5F1F0"/>
<path d="M671.629 818.207C670.946 818.207 670.258 818.067 669.605 817.778L550.065 764.797C548.495 764.101 547.392 762.648 547.144 760.948C546.896 759.248 547.538 757.54 548.843 756.425L610.814 703.465C612.154 702.319 614 701.963 615.67 702.531L675.45 722.852C678.064 723.741 679.464 726.581 678.574 729.195C677.685 731.809 674.846 733.211 672.231 732.319L615.146 712.915L561.373 758.87L670.314 807.154L696.129 778.038C697.962 775.972 701.121 775.783 703.188 777.614C705.254 779.446 705.444 782.606 703.612 784.673L675.372 816.525C674.401 817.62 673.029 818.208 671.629 818.208V818.207Z" fill="#F5F1F0"/>
<path d="M394.24 754.652C393.516 754.652 392.788 754.495 392.109 754.174L278.345 700.533C276.662 699.74 275.559 698.077 275.482 696.219C275.405 694.36 276.366 692.612 277.977 691.681L322.142 666.176C324.08 665.057 326.526 665.363 328.13 666.923C329.734 668.483 330.105 670.921 329.039 672.889L328.118 674.588L331.792 679.095L339.177 674.828C340.883 673.841 343.009 673.951 344.606 675.103L350.995 679.717L362.211 674.038L361.098 672.654C359.669 670.877 359.623 668.358 360.987 666.531C362.351 664.704 364.779 664.032 366.888 664.892L451.617 699.55C453.247 700.217 454.407 701.693 454.668 703.435C454.929 705.177 454.255 706.928 452.893 708.045L397.413 753.517C396.502 754.264 395.377 754.65 394.243 754.65L394.24 754.652ZM291.25 695.563L393.515 743.782L440.062 705.632L374.036 678.624C373.573 679.271 372.956 679.807 372.229 680.175L352.792 690.016C351.124 690.862 349.123 690.704 347.606 689.609L341.374 685.108L333.106 689.884C330.98 691.113 328.279 690.615 326.729 688.714L319.169 679.441L291.25 695.563Z" fill="#F5F1F0"/>
<path d="M274.512 739.399C273.989 739.399 273.463 739.317 272.956 739.151L232.563 725.928C229.939 725.069 228.508 722.245 229.367 719.62C230.226 716.996 233.048 715.566 235.675 716.424L274.085 728.998L312.753 709.157C315.209 707.896 318.223 708.865 319.484 711.323C320.744 713.779 319.775 716.793 317.318 718.053L276.794 738.846C276.081 739.212 275.298 739.398 274.511 739.398L274.512 739.399Z" fill="#F5F1F0"/>
<path d="M163.581 761.877C162.674 761.877 161.769 761.63 160.97 761.142L83.7337 713.853C82.1157 712.862 81.1977 711.041 81.3637 709.153C81.5287 707.263 82.7487 705.631 84.5137 704.936L177.218 668.461C178.399 667.994 179.713 667.998 180.891 668.465L200.745 676.335L268.837 699.697C270.738 700.349 272.064 702.077 272.203 704.082C272.341 706.087 271.266 707.98 269.473 708.888L165.84 761.338C165.129 761.698 164.355 761.877 163.582 761.877H163.581ZM97.5157 710.565L163.812 751.156L254.39 705.313L197.388 685.755C197.314 685.73 197.241 685.702 197.168 685.674L179.041 678.488L97.5157 710.564V710.565Z" fill="#F5F1F0"/>
<path d="M202.84 686.917C200.713 686.917 198.74 685.549 198.07 683.411C197.244 680.776 198.711 677.971 201.346 677.144L253.836 660.694C254.774 660.4 255.778 660.389 256.723 660.663L307.993 675.522C310.645 676.292 312.173 679.064 311.404 681.716C310.636 684.368 307.865 685.896 305.21 685.127L255.389 670.687L204.338 686.687C203.84 686.842 203.337 686.916 202.841 686.916L202.84 686.917Z" fill="#F5F1F0"/>
<path d="M576.171 674.801C575.876 674.801 575.58 674.775 575.285 674.722C453.891 652.868 295.837 627.119 294.255 626.862C291.911 626.481 290.159 624.504 290.063 622.132C290.001 620.621 283.872 470.775 281.841 442.43C281.733 440.925 282.311 439.451 283.413 438.42C284.515 437.39 286.02 436.91 287.518 437.12C356.354 446.714 568.467 473.079 570.601 473.345C572.956 473.638 574.781 475.545 574.969 477.91C577.235 506.428 581.01 663.029 581.17 669.681C581.205 671.183 580.565 672.621 579.424 673.598C578.511 674.381 577.355 674.801 576.171 674.801ZM299.887 617.648C324.913 621.74 461.354 644.13 571.023 663.795C570.318 635.237 567.289 515.415 565.281 482.758C536.226 479.141 360.775 457.263 292.211 447.862C294.318 483.258 298.949 594.865 299.887 617.648Z" fill="#F5F1F0"/>
<path d="M575.849 662.377C573.68 662.377 571.683 660.956 571.049 658.769C570.279 656.118 571.806 653.343 574.458 652.575C609.778 642.33 694.189 613.859 694.961 613.596C695.482 613.417 696.029 613.326 696.58 613.326C699.342 613.326 701.585 615.564 701.585 618.326C701.585 620.599 700.07 622.518 697.995 623.126C693.32 624.705 611.883 652.132 577.243 662.179C576.778 662.314 576.309 662.378 575.848 662.378L575.849 662.377Z" fill="#F5F1F0"/>
<path d="M576.164 674.802C574.005 674.802 572.013 673.393 571.37 671.217C570.589 668.568 572.101 665.787 574.751 665.005C596.566 658.566 626.731 648.299 653.345 639.241C668.019 634.247 681.968 629.499 692.398 626.126C692.327 624.822 692.246 623.569 692.163 622.52C673.918 618.985 587.58 602.271 573.248 599.5C570.537 598.976 568.764 596.354 569.288 593.642C569.811 590.93 572.432 589.163 575.146 589.682C672.802 608.558 692.736 612.436 696.978 613.294C697.344 613.329 697.705 613.406 698.053 613.521C698.136 613.542 698.162 613.55 698.189 613.56L698.187 613.567C699.106 613.897 699.932 614.489 700.534 615.265C701.459 616.462 702.127 617.327 702.564 629.542C702.644 631.786 701.218 633.809 699.078 634.487C688.486 637.844 672.982 643.121 656.568 648.708C629.863 657.797 599.595 668.099 577.582 674.597C577.11 674.736 576.634 674.802 576.165 674.802H576.164Z" fill="#F5F1F0"/>
<path d="M574.782 620.942C572.538 620.942 570.498 619.421 569.933 617.145C569.268 614.464 570.902 611.753 573.581 611.088L585.096 608.231L573.482 606.099C570.766 605.6 568.969 602.995 569.467 600.278C569.965 597.562 572.568 595.767 575.288 596.263L609.708 602.582C612.024 603.008 613.729 604.992 613.803 607.346C613.875 609.7 612.295 611.786 610.009 612.353L575.989 620.793C575.585 620.894 575.179 620.941 574.781 620.941L574.782 620.942Z" fill="#F5F1F0"/>
<path d="M165.176 536.736C162.643 536.736 160.449 534.827 160.181 532.259C159.895 529.526 161.84 527.076 164.571 526.773C164.935 526.732 165.547 526.7 166.354 526.667C170.196 526.512 181.839 526.038 185.222 519.84C185.271 519.721 185.289 519.64 185.289 519.601C185.289 514.145 180.858 509.864 177.141 507.233C172.474 503.929 166.046 501.176 159.946 499.868C157.246 499.289 155.527 496.631 156.106 493.93C156.685 491.229 159.347 489.511 162.043 490.09C173.542 492.556 195.289 501.898 195.289 519.601C195.289 521.138 194.938 522.669 194.247 524.153C194.215 524.221 194.181 524.29 194.146 524.357C188.167 535.79 172.055 536.445 166.76 536.66C166.278 536.68 165.905 536.69 165.669 536.713C165.503 536.73 165.338 536.737 165.175 536.737L165.176 536.736Z" fill="#F5F1F0"/>
<path d="M149.448 535.759H149.427C149.095 535.759 148.765 535.726 148.44 535.66L146.512 535.273C143.872 534.745 141.141 534.199 139.213 533.757C138.784 533.665 138.341 533.561 137.968 533.467C135.562 532.858 134.508 532.568 132.063 531.698C129.461 530.771 128.103 527.912 129.029 525.31C129.955 522.708 132.815 521.35 135.416 522.276C137.431 522.994 138.161 523.2 140.408 523.769C140.676 523.835 141.011 523.915 141.382 523.995C143.237 524.419 145.899 524.952 148.474 525.467L150.316 525.837C152.655 526.256 154.437 528.3 154.437 530.758C154.437 533.52 152.208 535.758 149.447 535.758L149.448 535.759Z" fill="#F5F1F0"/>
<path d="M125.23 528.423C124.307 528.423 123.373 528.167 122.537 527.632C116.189 523.565 106.597 517.417 106.597 508.34C106.597 506.379 107.701 504.944 108.064 504.472C108.426 504.001 108.888 503.487 109.476 502.899C112.981 499.381 120.549 493.726 126.652 490.735C128.384 489.888 129.891 489.298 131.265 488.93C133.678 488.278 136.843 487.934 140.664 487.909H140.697C143.444 487.909 145.678 490.126 145.697 492.877C145.715 495.638 143.491 497.892 140.73 497.909C137.04 497.932 134.961 498.291 133.866 498.587C133.351 498.725 132.453 499.03 131.049 499.718C126.07 502.157 119.649 506.99 116.882 509.643C118.271 513.022 124.434 516.971 127.934 519.213C130.259 520.703 130.936 523.796 129.446 526.12C128.491 527.61 126.879 528.424 125.231 528.424L125.23 528.423Z" fill="#F5F1F0"/>
<path d="M198.911 570.355C193.539 570.355 187.165 568.302 182.418 564.747C177.191 560.833 174.602 555.66 175.127 550.181C175.807 543.088 182.775 539.469 188.374 536.562C190.57 535.421 194.617 533.32 195.235 532.127C195.101 531.842 194.024 529.752 187.497 526.52C185.022 525.294 184.01 522.295 185.236 519.821C186.461 517.345 189.459 516.332 191.936 517.559C197.75 520.439 205.457 525.115 205.248 532.449C205.051 539.17 198.64 542.499 192.984 545.436C190.089 546.94 185.244 549.457 185.083 551.135C184.853 553.536 186.768 555.51 188.414 556.743C192.779 560.012 198.791 560.932 200.854 560.108C201.446 559.871 201.392 559.394 201.307 559.131C201.04 558.312 199.479 557.747 196.681 558.452C194.004 559.124 191.286 557.499 190.613 554.821C189.94 552.142 191.566 549.426 194.243 548.753C203.323 546.473 209.109 550.774 210.819 556.048C212.592 561.519 209.906 567.256 204.57 569.391C202.939 570.044 201.001 570.355 198.912 570.355H198.911Z" fill="#F5F1F0"/>
<path d="M160.998 499.978C159.521 499.978 158.059 499.327 157.072 498.079C155.36 495.912 155.728 492.767 157.895 491.056C158.779 490.358 159.415 489.538 159.64 488.81C159.733 488.524 159.759 488.35 159.743 488.204C159.681 487.628 159.062 486.89 158.592 486.666C158.201 486.482 157.13 486.509 155.453 487.218C153.541 488.029 151.305 489.534 148.99 491.572C147.47 492.931 145.942 494.492 144.476 496.183C144.022 496.711 143.545 497.273 143.079 497.854C141.349 500.006 138.202 500.349 136.05 498.622C133.897 496.893 133.553 493.746 135.282 491.593C135.82 490.924 136.368 490.277 136.905 489.652C138.659 487.627 140.488 485.761 142.353 484.092C145.537 481.29 148.622 479.253 151.553 478.01C156.835 475.776 160.622 476.571 162.869 477.628C166.527 479.368 169.26 483.188 169.685 487.141C169.853 488.713 169.678 490.297 169.165 491.853C168.362 494.456 166.599 496.924 164.094 498.904C163.177 499.63 162.083 499.981 160.997 499.981L160.998 499.978Z" fill="#F5F1F0"/>
<path d="M128.849 500.224C127.765 500.224 126.673 499.873 125.756 499.15C123.588 497.44 123.216 494.296 124.926 492.128C127.258 489.172 129.999 485.784 132.645 483.079C135.77 479.873 138.445 477.91 141.057 476.908C145.566 475.197 151.396 475.724 155.931 478.239C158.346 479.579 159.217 482.623 157.877 485.038C156.536 487.452 153.492 488.322 151.079 486.983C148.867 485.754 146.101 485.689 144.622 486.251C143.827 486.556 142.328 487.472 139.8 490.066C137.476 492.441 134.946 495.571 132.778 498.321C131.792 499.572 130.327 500.224 128.849 500.224Z" fill="#F5F1F0"/>
<path d="M123.944 507.341C124.344 508.448 127.038 508.663 129.272 508.109C130.573 507.791 133.873 506.275 133.811 505.168C133.739 504.051 131.741 504.102 128.831 504.871C126.392 505.517 123.585 506.346 123.943 507.34L123.944 507.341Z" fill="black"/>
<path d="M126.848 513.42C123.495 513.42 120.372 512.17 119.242 509.041C119.242 509.041 119.242 509.039 119.241 509.037C118.718 507.587 118.831 505.967 119.553 504.592C120.927 501.972 123.861 501.016 127.553 500.038C130.509 499.258 133.872 498.705 136.419 500.541C137.822 501.551 138.69 503.121 138.802 504.848C139.132 510.778 130.816 512.881 130.461 512.967C129.282 513.259 128.051 513.42 126.849 513.42H126.848Z" fill="#F5F1F0"/>
<path d="M119.991 511.785C118.263 511.785 116.584 510.889 115.657 509.286C114.275 506.895 115.093 503.837 117.484 502.455L131.237 494.506C133.629 493.125 136.686 493.942 138.068 496.333C139.45 498.724 138.632 501.782 136.241 503.164L122.488 511.113C121.7 511.568 120.84 511.785 119.991 511.785Z" fill="#F5F1F0"/>
<path d="M130.288 534.924C129.068 534.924 127.71 534.75 126.207 534.403C115.154 531.853 113.667 528.621 113.708 525.786C113.726 523.216 114.98 520.815 117.072 519.356C118.567 518.313 121.839 516.846 126.961 518.728C129.089 519.511 130.365 521.588 130.227 523.741C131.535 522.324 133.607 521.735 135.545 522.407C138.153 523.313 139.534 526.163 138.628 528.771C138.087 530.328 137.257 531.655 136.16 532.714C136.11 532.763 136.059 532.81 136.008 532.856L135.731 533.102C134.365 534.318 132.567 534.923 130.29 534.923L130.288 534.924Z" fill="#F5F1F0"/>
<path d="M154.911 541.242C151.259 541.242 147.692 540.677 145.542 539.232C143.296 537.725 142.358 535.033 143.156 532.376C143.436 531.442 143.92 530.551 144.551 529.743C145.02 527.469 147.034 525.759 149.448 525.759H152.409C155.163 525.759 157.398 527.986 157.409 530.739C157.409 530.888 157.404 531.036 157.391 531.182C158.229 531.126 159.048 531.04 159.78 530.92C159.561 529.077 160.382 527.185 162.049 526.117C164.374 524.626 167.466 525.305 168.956 527.63C169.69 528.776 170.094 530.163 170.123 531.642C170.143 533.25 169.731 534.97 168.995 536.399C168.977 536.435 168.958 536.47 168.939 536.505C168.421 537.453 167.79 538.221 167.062 538.788C165.26 540.141 160.003 541.241 154.911 541.241V541.242ZM160.533 533.021C160.533 533.021 160.535 533.023 160.535 533.025C160.535 533.023 160.534 533.022 160.533 533.021Z" fill="#F5F1F0"/>
<path d="M112.896 506.561C112.876 505.431 111.876 503.681 110.226 502.551C109.376 501.981 107.206 502.591 106.996 503.731C106.696 505.311 110.096 507.661 111.836 507.661H111.926" fill="black"/>
<path d="M111.926 512.661C108.794 512.661 105.466 510.563 103.749 508.49C101.806 506.143 101.871 503.917 102.083 502.8C102.473 500.684 103.97 498.919 106.187 497.984C108.028 497.21 110.786 496.909 113.008 498.397C115.943 500.408 117.843 503.566 117.895 506.473C117.923 508.069 117.201 509.503 116.053 510.439C115.169 511.78 113.66 512.661 111.926 512.661Z" fill="#F5F1F0"/>
<path d="M169.436 539.393C167.788 539.393 166.003 539.26 164.101 539.088C161.351 538.84 159.323 536.409 159.571 533.659C159.82 530.908 162.26 528.884 165 529.129C166.859 529.297 168.334 529.385 169.416 529.393C169.897 527.874 171.095 526.613 172.733 526.116C175.375 525.317 178.168 526.808 178.968 529.451L179.02 529.62C179.385 530.807 180.242 533.585 178.377 536.074C178.315 536.157 178.251 536.238 178.184 536.316C176.137 538.723 173.135 539.393 169.436 539.393Z" fill="#F5F1F0"/>
<path d="M138.693 536.334C135.297 536.334 131.205 534.712 129.148 532.653C127.196 530.7 127.197 527.534 129.15 525.583C131.103 523.631 134.269 523.631 136.221 525.585C136.346 525.68 136.599 525.797 136.905 525.911C137.754 524.83 139.043 524.101 140.523 524.008C143.282 523.829 145.654 525.927 145.829 528.683C145.995 531.315 144.636 533.957 142.365 535.416C142.168 535.542 141.963 535.654 141.75 535.752C140.875 536.154 139.822 536.334 138.693 536.334Z" fill="#F5F1F0"/>
<path d="M94.6476 567.441C93.1036 567.441 91.5896 566.726 90.6176 565.405L83.4926 555.725C82.3636 554.191 82.2036 552.149 83.0816 550.458L85.8376 545.147C86.3036 544.249 87.0316 543.512 87.9246 543.037L104.932 533.977C106.234 533.285 107.777 533.201 109.146 533.75L129.332 541.856C130.213 542.21 130.975 542.807 131.529 543.578L136.416 550.379C137.268 551.565 137.559 553.063 137.213 554.481C136.867 555.899 135.92 557.095 134.618 557.756L116.603 566.899C114.997 567.716 113.075 567.601 111.574 566.605L105.11 562.312L97.0866 566.803C96.3176 567.234 95.4786 567.441 94.6476 567.441ZM105.332 551.459C106.299 551.459 107.263 551.739 108.099 552.294L114.678 556.663L124.891 551.479L124.256 550.595L107.579 543.898L93.9976 551.133L93.3906 552.303L96.0546 555.921L102.891 552.095C103.651 551.669 104.493 551.459 105.332 551.459Z" fill="#F5F1F0"/>
<path d="M777.546 578.967C777.301 578.967 777.052 578.948 776.801 578.911C774.071 578.503 772.187 575.958 772.595 573.226C777.405 541.049 775.175 513.228 773.548 492.914C772.11 474.959 771.16 463.098 775.244 455.914C784.887 438.927 795.213 428.652 805.2 418.716C819.601 404.387 832.039 392.012 839.153 361.742C843.021 345.264 841.487 307.269 840.47 282.127C839.757 264.5 839.581 258.587 840.239 256.044C841.633 250.622 842.668 245.316 843.311 240.28C843.662 237.541 846.147 235.595 848.905 235.955C851.644 236.305 853.581 238.81 853.231 241.549C852.537 246.971 851.43 252.662 849.942 258.463C849.606 260.568 850.042 271.322 850.463 281.723C851.501 307.408 853.069 346.222 848.889 364.028C841.12 397.084 827.098 411.035 812.252 425.804C802.742 435.267 792.908 445.051 783.939 460.853C781.373 465.366 782.367 477.761 783.517 492.115C785.183 512.912 787.464 541.394 782.486 574.705C782.115 577.185 779.982 578.967 777.548 578.967H777.546ZM849.931 258.513C849.929 258.522 849.926 258.531 849.924 258.54C849.926 258.532 849.928 258.523 849.931 258.513Z" fill="#F5F1F0"/>
<path d="M430.366 465.776C429.99 465.776 429.608 465.733 429.226 465.644C426.537 465.017 424.865 462.329 425.492 459.64C429.761 441.329 438.677 421.53 445.188 407.073C448.741 399.183 451.81 392.37 452.542 389.229C456.894 370.598 452.204 348.779 448.436 331.248C447.033 324.72 445.82 319.081 445.239 314.345C440.971 279.44 447.54 255.285 463.878 214.343C471.78 194.55 478.813 183.735 482.591 177.925C483.625 176.336 484.788 174.547 485.1 173.828C486.887 154.864 491.059 146.546 499.131 136.14C500.823 133.958 503.966 133.563 506.147 135.254C508.329 136.947 508.725 140.087 507.033 142.27C499.989 151.349 496.584 158.235 495.032 175.036C494.805 177.487 493.445 179.578 490.975 183.376C487.133 189.284 480.702 199.173 473.166 218.049C453.763 266.673 451.932 286.677 455.166 313.128C455.693 317.418 456.861 322.853 458.214 329.146C461.983 346.678 467.144 370.689 462.282 391.502C461.328 395.589 458.383 402.128 454.307 411.179C447.965 425.261 439.28 444.548 435.232 461.909C434.694 464.217 432.638 465.775 430.367 465.775L430.366 465.776Z" fill="#F5F1F0"/>
<path d="M845.072 262.291C844.031 262.291 842.981 261.967 842.083 261.296C839.871 259.643 839.418 256.509 841.071 254.297C850.957 241.068 869.093 206.558 875.011 182.591C880.95 158.57 884.148 130.039 884.016 102.254C884.005 100.588 882.786 99.1894 880.392 98.1054C876.376 96.2854 847.712 94.4164 810.379 99.0624C785.588 102.147 740.423 110.438 716.481 131.3C714.397 133.114 711.239 132.898 709.426 130.815C707.612 128.733 707.829 125.575 709.91 123.761C723.514 111.907 751.774 96.2784 809.143 89.1394C844.138 84.7834 876.953 85.5684 884.518 88.9964C890.515 91.7124 893.977 96.5244 894.015 102.196C894.151 130.793 890.849 160.193 884.718 184.99C878.504 210.156 859.46 246.393 849.079 260.283C848.098 261.596 846.594 262.29 845.07 262.29L845.072 262.291Z" fill="#F5F1F0"/>
<path d="M494.575 158.251C491.845 158.251 489.614 156.057 489.577 153.319C489.298 132.736 491.709 102.932 497.724 82.7444C505.011 58.2764 517.077 31.2654 531.699 6.68535C534.621 1.81035 540.043 -0.581634 546.586 0.120366C556.748 1.20437 588.31 20.4314 610.28 37.0094C655.333 71.0044 672.118 98.3014 678.265 115.214C679.208 117.809 677.868 120.678 675.273 121.621C672.682 122.564 669.81 121.225 668.867 118.63C658.022 88.7943 623.731 59.6874 604.257 44.9924C575.068 22.9684 549.859 10.5264 545.526 10.0644C542.908 9.78637 541.148 10.3744 540.286 11.8134C526.082 35.6904 514.367 61.8994 507.309 85.6004C501.626 104.674 499.317 134.004 499.577 153.184C499.615 155.945 497.407 158.214 494.645 158.251C494.622 158.251 494.599 158.251 494.576 158.251H494.575Z" fill="#F5F1F0"/>
<path d="M740.335 153.29C738.704 153.29 737.106 152.494 736.147 151.027C729.59 141.006 715.226 132.211 696.739 126.894C680.254 122.154 662.104 120.775 650.501 123.384C647.808 123.991 645.132 122.297 644.526 119.602C643.92 116.908 645.613 114.233 648.307 113.627C661.629 110.633 681.245 112.034 699.502 117.284C711.699 120.792 733.768 129.128 744.514 145.552C746.027 147.863 745.379 150.962 743.068 152.474C742.224 153.026 741.273 153.29 740.335 153.29Z" fill="#F5F1F0"/>
<path d="M458.332 207.868C456.321 207.868 454.425 206.646 453.662 204.656C449.333 193.359 450.946 182.778 453.061 175.891C453.872 173.251 456.668 171.77 459.309 172.579C461.949 173.39 463.431 176.187 462.621 178.827C460.967 184.21 459.691 192.441 463 201.077C463.988 203.656 462.699 206.547 460.12 207.535C459.532 207.761 458.927 207.868 458.332 207.868Z" fill="#F5F1F0"/>
<path d="M443.617 212.774C441.609 212.774 439.715 211.556 438.95 209.57C434.078 196.925 435.358 184.956 437.29 177.141C437.952 174.46 440.665 172.822 443.344 173.487C446.025 174.15 447.661 176.86 446.998 179.541C445.411 185.961 444.346 195.759 448.281 205.976C449.274 208.553 447.989 211.447 445.413 212.439C444.822 212.667 444.214 212.775 443.617 212.775V212.774Z" fill="#F5F1F0"/>
<path d="M867.816 307.606C866.281 307.606 864.765 306.901 863.786 305.569C862.148 303.345 862.625 300.215 864.848 298.578C872.429 292.997 874.077 283.983 874.435 280.367C874.705 277.618 877.149 275.614 879.902 275.882C882.65 276.153 884.658 278.601 884.386 281.349C883.898 286.298 881.594 298.669 870.776 306.633C869.883 307.29 868.845 307.607 867.816 307.607V307.606Z" fill="#F5F1F0"/>
<path d="M873.616 320.778C871.907 320.778 870.243 319.902 869.309 318.325C867.902 315.949 868.688 312.882 871.064 311.475C878.452 307.1 881.533 297.749 881.71 296.572C882.122 293.848 884.658 291.957 887.389 292.359C890.115 292.763 892.003 295.28 891.608 298.007C890.966 302.436 886.185 314.142 876.16 320.079C875.361 320.552 874.482 320.778 873.616 320.778Z" fill="#F5F1F0"/>
<path d="M513.897 476.301C513.699 476.301 513.499 476.288 513.296 476.265C510.554 475.936 508.598 473.447 508.926 470.705C510.983 453.543 525.997 438.808 533.468 435.722C536.02 434.667 538.945 435.882 539.998 438.434C541.053 440.987 539.838 443.91 537.286 444.964C533.56 446.503 520.532 457.906 518.855 471.895C518.55 474.435 516.392 476.301 513.896 476.301H513.897Z" fill="#F5F1F0"/>
<path d="M386.017 548.543L408.177 526.587C408.552 526.119 409.299 526.388 409.272 526.983L410.007 574.103L409.971 575.678C409.955 575.996 410.22 576.283 410.559 576.302L422.3 579.482C422.547 579.486 422.757 579.395 422.877 579.226C422.975 579.134 423.031 578.992 423.037 578.845L422.558 528.876C422.576 528.252 423.449 528.005 423.853 528.526L444.786 560.585C445.179 561.094 446.052 560.847 446.084 560.213L447.747 537.213C447.753 537.066 447.722 536.926 447.625 536.813L416.361 493.006C415.457 491.849 415.831 492.308 414.991 493.372L384.645 529.216C384.558 529.323 384.51 529.456 384.505 529.594L384.933 548.14C384.918 548.725 385.653 549.003 386.016 548.545L386.017 548.543Z" fill="black"/>
<path d="M422.314 584.48C422.283 584.48 422.252 584.48 422.221 584.48L421.596 584.47L409.511 581.198C406.848 580.678 404.885 578.291 404.972 575.53L405.005 574.085L404.432 537.336L389.645 551.987C388.123 553.624 385.764 554.207 383.634 553.435C381.415 552.629 379.947 550.537 379.933 548.19L379.502 529.554L379.508 529.4C379.555 528.19 379.998 527.007 380.757 526.07L380.828 525.984L411.093 490.216C412.361 487.91 414.281 487.427 415.312 487.344C418.097 487.115 419.627 489.065 420.276 489.896L420.43 490.101L451.636 533.827C452.407 534.85 452.798 536.117 452.742 537.429L452.733 537.575L451.071 560.55C450.919 562.872 449.325 564.893 447.082 565.595C444.796 566.312 442.279 565.527 440.825 563.639L440.598 563.32L427.697 543.563L428.036 578.939L428.03 579.08C427.969 580.376 427.479 581.582 426.636 582.525C425.571 583.762 423.993 584.483 422.311 584.483L422.314 584.48ZM414.979 572.317L417.982 573.13L417.557 528.826L417.559 528.729C417.628 526.356 419.203 524.264 421.478 523.524C423.785 522.772 426.329 523.553 427.808 525.466L428.038 525.79L442.012 547.189L442.645 538.439L415.54 500.459L389.542 531.165L389.697 537.855L404.55 523.139C406.098 521.475 408.494 520.895 410.646 521.707C412.852 522.538 414.286 524.639 414.272 526.981L414.979 572.314V572.317Z" fill="#F5F1F0"/>
<path d="M572.766 546.001C572.716 545.991 572.666 545.991 572.616 545.981Z" fill="#F5F1F0"/>
<path d="M1003.43 699.931L952.786 769.811L833.586 720.321L822.726 715.811L854.306 681.791L878.756 655.461C891.876 662.241 969.376 687.691 1003.43 699.931Z" fill="#F5F1F0"/>
<path d="M822.726 715.811L833.586 720.321L826.636 728.411L825.696 729.511L766.926 783.431L748.926 802.571L699.866 781.351L641.956 756.301L673.836 727.581L725.016 681.481L728.336 679.141L771.226 648.861L854.306 681.791L822.726 715.811Z" fill="#F5F1F0"/>
<path d="M872.216 746.711L810.576 802.571L766.926 783.431L825.696 729.511L826.636 728.411L872.216 746.711Z" fill="#F5F1F0"/>
<path d="M728.336 679.141L725.016 681.481L673.836 727.581L647.486 718.621L701.506 669.731L728.336 679.141Z" fill="#F5F1F0"/>
<path d="M699.866 781.351L671.636 813.211L552.086 760.221L614.056 707.261L647.486 718.621L673.836 727.581L641.956 756.301L699.866 781.351Z" fill="#F5F1F0"/>
<path d="M449.716 704.181L394.236 749.651L316.356 712.931L280.476 696.011L307.296 680.531L324.646 670.511L322.126 675.151L330.606 685.551L341.676 679.161L350.536 685.551L369.966 675.711L364.996 669.521L449.716 704.181Z" fill="#F5F1F0"/>
<path d="M267.216 704.431L234.116 721.181L163.576 756.881L86.3457 709.591L179.046 673.111L199.006 681.031L202.186 682.121L267.216 704.431Z" fill="#F5F1F0"/>
<path d="M316.356 712.931L274.516 734.401L234.116 721.181L267.216 704.431L202.186 682.121L255.326 665.461L307.296 680.531L280.476 696.011L316.356 712.931Z" fill="#F5F1F0"/>
<path d="M575.856 657.371C575.616 647.621 575.236 632.891 574.786 615.941C574.656 611.181 574.526 606.241 574.386 601.181C574.326 599.011 574.266 596.811 574.196 594.591C573.766 578.641 573.276 561.831 572.766 546.001C571.796 515.411 570.796 488.461 569.986 478.301C569.986 478.301 547.116 475.461 513.896 471.301C489.876 468.281 460.446 464.581 430.356 460.771C374.916 453.731 317.206 446.301 286.826 442.071C287.566 452.351 288.826 478.271 290.146 507.331C292.506 559.561 295.056 621.931 295.056 621.931C295.056 621.931 453.326 647.691 576.166 669.801C576.166 669.801 576.056 665.191 575.856 657.371ZM446.086 560.211C446.056 560.851 445.176 561.091 444.786 560.581L423.856 528.521C423.446 528.001 422.576 528.251 422.556 528.871L423.036 578.841C423.026 578.991 422.976 579.131 422.876 579.221C422.756 579.391 422.546 579.481 422.296 579.481L410.556 576.301C410.216 576.281 409.956 575.991 409.966 575.681L410.006 574.101L409.276 526.981C409.296 526.391 408.556 526.121 408.176 526.591L386.016 548.541C385.656 549.001 384.916 548.721 384.936 548.141L384.506 529.591C384.506 529.451 384.556 529.321 384.646 529.211L414.996 493.371C415.836 492.311 415.456 491.851 416.366 493.001L447.626 536.811C447.726 536.921 447.756 537.061 447.746 537.211L446.086 560.211Z" fill="#F5F1F0"/>
<path d="M447.746 537.211L446.086 560.211C446.056 560.851 445.176 561.091 444.786 560.581L423.856 528.521C423.446 528.001 422.576 528.251 422.556 528.871L423.036 578.841C423.026 578.991 422.976 579.131 422.876 579.221C422.756 579.391 422.546 579.481 422.296 579.481L410.556 576.301C410.216 576.281 409.956 575.991 409.966 575.681L410.006 574.101L409.276 526.981C409.296 526.391 408.556 526.121 408.176 526.591L386.016 548.541C385.656 549.001 384.916 548.721 384.936 548.141L384.506 529.591C384.506 529.451 384.556 529.321 384.646 529.211L414.996 493.371C415.836 492.311 415.456 491.851 416.366 493.001L447.626 536.811C447.726 536.921 447.756 537.061 447.746 537.211Z" fill="#F5F1F0"/>
<path d="M608.806 607.501L574.786 615.941C574.656 611.181 574.526 606.241 574.386 601.181L608.806 607.501Z" fill="#F5F1F0"/>
<path d="M696.576 618.321C695.406 618.721 611.276 647.091 575.856 657.371C575.616 647.621 575.236 632.891 574.786 615.941L608.806 607.501L574.386 601.181C574.326 599.011 574.266 596.811 574.196 594.591C590.546 597.751 696.486 618.261 696.516 618.271C696.536 618.271 696.556 618.291 696.576 618.321Z" fill="#F5F1F0"/>
<path d="M697.566 629.721C670.056 638.441 611.906 659.251 576.166 669.801C576.166 669.801 576.056 665.191 575.856 657.371C611.276 647.091 695.406 618.721 696.576 618.321C697.186 619.111 697.566 629.721 697.566 629.721Z" fill="#F5F1F0"/>
<path d="M195.461 553.604C206.991 550.706 209.297 562.114 202.712 564.751C195.946 567.46 179.097 561.169 180.105 550.657C180.93 542.048 200.024 540.011 200.249 532.306C200.351 528.699 196.191 525.246 189.716 522.039" fill="#F5F1F0"/>
<path d="M190.286 519.601C190.286 520.461 190.076 521.271 189.716 522.041C187.086 527.061 181.556 529.421 176.376 530.551C175.646 530.711 174.916 530.851 174.206 530.961C169.896 531.671 166.186 531.621 165.126 531.741C165.136 532.581 164.876 533.471 164.546 534.111C164.366 534.451 164.176 534.701 163.986 534.851C162.466 535.981 151.576 537.261 148.326 535.081C146.716 534.001 149.736 530.781 152.406 530.761H149.426C146.276 530.121 142.656 529.421 140.326 528.881C139.896 528.791 139.506 528.701 139.176 528.621C136.876 528.031 135.986 527.791 133.736 526.991L133.906 527.131C133.656 527.841 133.286 528.531 132.686 529.121C132.596 529.201 132.496 529.281 132.406 529.361C131.496 530.181 129.236 529.971 127.336 529.531C122.746 528.471 118.686 526.811 118.706 525.841C118.706 524.301 119.846 522.811 122.246 522.811C123.086 522.811 124.076 522.991 125.236 523.421C119.156 519.531 111.596 514.521 111.596 508.341C111.596 508.181 111.716 507.951 111.926 507.661L112.896 506.561V506.551C112.936 506.511 112.976 506.471 113.016 506.431C115.996 503.441 123.146 498.021 128.856 495.221C131.456 491.921 133.916 488.931 136.216 486.581C138.606 484.131 140.816 482.351 142.846 481.571C145.816 480.451 150.146 480.741 153.506 482.611C156.296 481.431 158.786 481.231 160.736 482.151C162.616 483.041 164.446 485.191 164.716 487.671C164.806 488.531 164.706 489.411 164.416 490.281C164.266 490.781 164.056 491.271 163.786 491.751C163.156 492.911 162.206 494.021 160.996 494.981C172.696 497.491 190.286 506.051 190.286 519.601Z" fill="#F5F1F0"/>
<path d="M111.926 507.661C111.956 507.611 111.986 507.571 112.026 507.521C112.236 507.241 112.536 506.921 112.896 506.561" fill="#F5F1F0"/>
<path d="M112.896 506.551V506.561L111.926 507.661H111.836C110.096 507.661 106.696 505.311 106.996 503.731C107.206 502.591 109.376 501.981 110.226 502.551C111.876 503.681 112.866 505.421 112.896 506.551Z" fill="#F5F1F0"/>
<path d="M174.184 530.901C174.42 531.68 174.745 532.585 174.376 533.077C173.01 534.683 169.223 534.531 164.551 534.109" fill="#F5F1F0"/>
<path d="M140.838 528.998C140.899 529.971 140.267 530.82 139.662 531.209C138.502 531.742 134.323 530.758 132.684 529.119" fill="#F5F1F0"/>
<path d="M132.356 553.301L114.336 562.441L105.336 556.461L94.6457 562.441L87.5157 552.761L90.2757 547.451L107.286 538.391L127.466 546.501L132.356 553.301Z" fill="#F5F1F0"/>
<path d="M845.076 257.291C843.506 263.371 850.076 337.071 844.016 362.881C831.626 415.601 802.886 417.331 779.586 458.381C772.086 471.571 786.326 515.151 777.536 573.961C746.506 569.821 715.486 565.681 684.456 561.541C651.706 557.171 610.876 551.341 572.766 546.001C571.796 515.411 570.796 488.461 569.986 478.301C569.986 478.301 547.116 475.461 513.896 471.301C489.876 468.281 460.446 464.581 430.356 460.771C436.956 432.461 455.126 400.131 457.406 390.361C463.676 363.521 452.286 330.751 450.196 313.731C446.176 280.851 451.816 258.041 468.516 216.191C480.246 186.811 489.716 178.141 490.046 174.571C490.896 165.341 492.326 158.841 494.506 153.421C494.356 134.121 496.666 103.801 502.516 84.1714C510.006 59.0214 522.046 32.6914 535.996 9.24137C537.566 6.62137 540.706 4.52138 546.056 5.09138C559.076 6.48138 653.016 63.1514 673.886 117.531H673.896C686.736 118.691 700.886 122.061 713.196 127.531C757.186 89.2014 870.296 88.0414 882.456 93.5514C887.356 95.7714 888.996 99.1814 889.016 102.231C889.146 129.521 886.166 158.311 879.866 183.791C873.616 209.101 854.686 244.431 845.076 257.291Z" fill="#F5F1F0"/>
<path d="M674.356 118.771C674.206 118.361 674.046 117.941 673.896 117.531Z" fill="#F5F1F0"/>
<path d="M447.746 537.211L446.086 560.211C446.056 560.851 445.176 561.091 444.786 560.581L423.856 528.521C423.446 528.001 422.576 528.251 422.556 528.871L423.036 578.841C423.026 578.991 422.976 579.131 422.876 579.221C422.756 579.391 422.546 579.481 422.296 579.481L410.556 576.301C410.216 576.281 409.956 575.991 409.966 575.681L410.006 574.101L409.276 526.981C409.296 526.391 408.556 526.121 408.176 526.591L386.016 548.541C385.656 549.001 384.916 548.721 384.936 548.141L384.506 529.591C384.506 529.451 384.556 529.321 384.646 529.211L414.996 493.371C415.836 492.311 415.456 491.851 416.366 493.001L447.626 536.811C447.726 536.921 447.756 537.061 447.746 537.211Z" fill="#F5F1F0"/>
<path d="M290.153 508.836C290.094 508.836 290.035 508.833 289.975 508.825L270.376 506.511C240.302 502.962 211.895 499.61 204.033 498.563L200.216 498.061C195.402 497.428 190.578 496.793 185.754 496.154C182.676 495.754 179.595 495.353 176.513 494.943L163.585 493.244C162.764 493.136 162.186 492.382 162.294 491.56C162.403 490.739 163.162 490.164 163.978 490.269L176.908 491.968C179.988 492.378 183.067 492.779 186.145 493.179C190.972 493.82 195.794 494.453 200.607 495.086L204.427 495.588C212.269 496.633 241.988 500.14 270.728 503.532L290.328 505.846C291.151 505.943 291.739 506.689 291.641 507.511C291.551 508.275 290.903 508.835 290.153 508.835V508.836Z" fill="black"/>
<path d="M134.903 489.475C134.838 489.475 134.772 489.471 134.706 489.462L128.69 488.673C87.8377 483.318 45.5947 477.779 4.80169 472.331C3.98069 472.222 3.40369 471.468 3.51369 470.646C3.62269 469.825 4.38169 469.24 5.19969 469.358C45.9897 474.804 88.2297 480.342 129.081 485.698L135.096 486.487C135.918 486.594 136.496 487.348 136.388 488.17C136.289 488.925 135.644 489.475 134.903 489.475Z" fill="black"/>
<path d="M144.221 490.695C143.392 490.695 142.716 490.023 142.716 489.195C142.716 488.367 143.383 487.695 144.211 487.695H144.221C145.05 487.695 145.721 488.367 145.721 489.195C145.721 490.023 145.05 490.695 144.221 490.695Z" fill="black"/>
<path d="M1012.98 605.685C1012.92 605.685 1012.85 605.681 1012.78 605.672C968.825 599.811 935.385 595.651 903.045 591.63C870.533 587.586 836.915 583.405 792.673 577.502L791.254 577.313L684.263 563.032C660.092 559.803 631.013 555.711 602.89 551.753C592.673 550.315 582.449 548.875 572.413 547.471C571.593 547.357 571.02 546.598 571.136 545.778C571.25 544.958 572.014 544.389 572.829 544.501C582.864 545.905 593.09 547.345 603.308 548.783C631.425 552.74 660.499 556.833 684.659 560.06L793.058 574.528C837.297 580.431 870.91 584.612 903.414 588.654C935.76 592.676 969.207 596.837 1013.18 602.699C1014 602.809 1014.58 603.563 1014.47 604.385C1014.37 605.139 1013.72 605.687 1012.98 605.687V605.685Z" fill="black"/>
<path d="M952.786 771.308C952.594 771.308 952.398 771.271 952.212 771.194L822.15 717.196C821.697 717.008 821.364 716.609 821.259 716.13C821.154 715.651 821.291 715.15 821.625 714.79L877.658 654.445C878.117 653.952 878.847 653.824 879.446 654.133C888.099 658.604 926.011 671.607 959.46 683.078C976.498 688.922 992.592 694.441 1003.93 698.519C1004.37 698.678 1004.72 699.038 1004.86 699.488C1005 699.939 1004.92 700.428 1004.64 700.81L954.002 770.688C953.713 771.087 953.257 771.308 952.786 771.308ZM825.29 715.252L952.268 767.969L1001.04 700.669C989.854 696.674 974.594 691.44 958.488 685.916C924.531 674.27 889.458 662.241 879.096 657.306L825.29 715.252Z" fill="black"/>
<path d="M748.931 804.075C748.73 804.075 748.528 804.035 748.335 803.952L641.365 757.682C640.896 757.479 640.563 757.052 640.48 756.548C640.398 756.043 640.577 755.532 640.957 755.191L724.018 680.371C724.062 680.331 724.109 680.294 724.158 680.26L770.367 647.64C770.781 647.349 771.314 647.286 771.785 647.471L854.865 680.402C855.636 680.708 856.012 681.579 855.707 682.349C855.4 683.12 854.528 683.496 853.76 683.191L771.435 650.559L725.96 682.661L644.701 755.857L748.56 800.781L765.838 782.409C765.863 782.382 765.89 782.356 765.917 782.331L824.62 728.473L832.443 719.343C832.983 718.716 833.928 718.64 834.558 719.181C835.187 719.72 835.259 720.666 834.72 721.296L826.84 730.491C826.801 730.537 826.759 730.581 826.714 730.622L767.985 784.505L750.023 803.604C749.733 803.913 749.335 804.077 748.93 804.077L748.931 804.075Z" fill="black"/>
<path d="M810.581 804.075C810.377 804.075 810.172 804.034 809.978 803.949L766.328 784.809C765.569 784.476 765.224 783.591 765.557 782.832C765.89 782.073 766.773 781.728 767.534 782.061L810.295 800.811L869.438 747.214L826.084 729.807C825.314 729.498 824.942 728.625 825.251 727.857C825.559 727.086 826.437 726.712 827.201 727.024L872.78 745.324C873.26 745.516 873.607 745.942 873.698 746.451C873.789 746.96 873.612 747.48 873.228 747.827L811.588 803.686C811.307 803.941 810.946 804.075 810.581 804.075Z" fill="black"/>
<path d="M647.491 720.126C647.083 720.126 646.675 719.96 646.379 719.633C645.823 719.019 645.87 718.07 646.484 717.514L700.504 668.623C700.912 668.253 701.49 668.136 702.007 668.32L728.837 677.73C729.619 678.003 730.03 678.86 729.756 679.641C729.483 680.424 728.625 680.834 727.845 680.56L701.857 671.446L648.499 719.738C648.212 719.998 647.851 720.126 647.491 720.126Z" fill="black"/>
<path d="M671.631 814.707C671.426 814.707 671.219 814.665 671.024 814.578L551.484 761.597C551.012 761.388 550.681 760.952 550.607 760.443C550.533 759.934 550.725 759.421 551.117 759.086L613.088 706.126C613.49 705.782 614.047 705.678 614.545 705.847L674.324 726.167C675.109 726.434 675.528 727.285 675.262 728.07C674.995 728.853 674.14 729.275 673.36 729.007L614.388 708.962L554.876 759.82L671.237 811.392L698.75 780.361C699.298 779.743 700.247 779.681 700.867 780.234C701.487 780.783 701.544 781.731 700.994 782.351L672.754 814.203C672.463 814.531 672.052 814.708 671.632 814.708L671.631 814.707Z" fill="black"/>
<path d="M394.24 751.152C394.023 751.152 393.805 751.105 393.601 751.008L279.837 697.367C279.332 697.13 279.001 696.631 278.978 696.073C278.955 695.515 279.243 694.991 279.727 694.712L323.892 669.207C324.474 668.869 325.207 668.963 325.688 669.431C326.169 669.9 326.28 670.63 325.96 671.221L323.921 674.983L330.96 683.617L340.925 677.859C341.436 677.563 342.074 677.595 342.554 677.942L350.671 683.803L367.642 675.211L363.823 670.462C363.394 669.929 363.381 669.173 363.79 668.625C364.199 668.077 364.927 667.876 365.56 668.133L450.289 702.791C450.778 702.991 451.126 703.435 451.205 703.957C451.284 704.479 451.081 705.005 450.672 705.34L395.192 750.812C394.919 751.036 394.581 751.152 394.24 751.152ZM283.708 695.877L394.022 747.892L446.822 704.617L369.801 673.111L371.138 674.774C371.421 675.127 371.531 675.588 371.435 676.031C371.339 676.474 371.05 676.848 370.646 677.052L351.209 686.893C350.709 687.147 350.109 687.101 349.653 686.771L341.583 680.944L331.353 686.854C330.715 687.221 329.904 687.073 329.44 686.503L320.959 676.101C320.581 675.636 320.515 674.993 320.79 674.462L283.706 695.877H283.708Z" fill="black"/>
<path d="M274.512 735.899C274.355 735.899 274.198 735.875 274.045 735.825L233.652 722.602C232.865 722.344 232.436 721.497 232.693 720.709C232.95 719.921 233.797 719.492 234.586 719.75L274.384 732.778L314.351 712.27C315.086 711.893 315.992 712.183 316.37 712.92C316.748 713.657 316.457 714.561 315.72 714.94L275.196 735.733C274.982 735.842 274.747 735.898 274.511 735.898L274.512 735.899Z" fill="black"/>
<path d="M163.581 758.377C163.309 758.377 163.038 758.303 162.798 758.156L85.5617 710.867C85.0767 710.57 84.8007 710.024 84.8507 709.457C84.8997 708.891 85.2667 708.4 85.7957 708.192L178.5 671.717C178.854 671.578 179.248 671.577 179.602 671.717L199.564 679.63L267.701 703.006C268.271 703.202 268.669 703.72 268.711 704.321C268.753 704.922 268.43 705.491 267.892 705.762L164.259 758.212C164.046 758.32 163.814 758.374 163.582 758.374L163.581 758.377ZM89.6957 709.881L163.65 755.16L263.367 704.692L198.524 682.445L179.046 674.725L89.6946 709.88L89.6957 709.881Z" fill="black"/>
<path d="M202.841 683.416C202.203 683.416 201.611 683.006 201.41 682.364C201.162 681.574 201.602 680.732 202.392 680.484L254.882 664.034C255.163 663.945 255.465 663.942 255.748 664.025L307.018 678.884C307.814 679.114 308.272 679.946 308.041 680.742C307.81 681.538 306.979 681.999 306.183 681.764L255.348 667.031L203.29 683.346C203.141 683.393 202.989 683.414 202.841 683.414V683.416Z" fill="black"/>
<path d="M576.171 671.301C576.082 671.301 575.993 671.293 575.905 671.278C454.481 649.419 296.4 623.666 294.817 623.408C294.114 623.294 293.588 622.701 293.559 621.989C293.497 620.478 287.366 470.578 285.331 442.179C285.299 441.727 285.472 441.285 285.803 440.976C286.134 440.667 286.587 440.522 287.034 440.586C355.896 450.183 568.034 476.552 570.168 476.817C570.875 476.905 571.422 477.477 571.479 478.186C573.738 506.606 577.631 668.136 577.67 669.764C577.681 670.214 577.488 670.646 577.146 670.94C576.873 671.174 576.526 671.3 576.17 671.3L576.171 671.301ZM296.507 620.643C311.374 623.069 459.066 647.22 574.627 667.998C574.192 650.192 570.712 509.239 568.581 479.642C551.264 477.488 356.364 453.223 288.451 443.811C290.499 474.735 295.926 606.481 296.507 620.643Z" fill="black"/>
<path d="M575.85 658.876C575.2 658.876 574.601 658.45 574.411 657.794C574.18 656.998 574.638 656.166 575.433 655.936C610.819 645.672 695.323 617.17 696.095 616.907C696.251 616.853 696.415 616.826 696.58 616.826C697.408 616.826 698.085 617.498 698.085 618.326C698.085 619.021 697.615 619.606 696.975 619.776C693.764 620.862 611.178 648.692 576.269 658.817C576.129 658.858 575.989 658.877 575.85 658.877V658.876Z" fill="black"/>
<path d="M576.165 671.301C575.518 671.301 574.92 670.878 574.727 670.226C574.493 669.431 574.947 668.597 575.741 668.363C597.626 661.903 627.827 651.624 654.472 642.555C670.368 637.145 685.41 632.025 696.023 628.638C695.872 625.017 695.613 621.129 695.37 619.576C685.318 617.626 589.442 599.065 573.912 596.063C573.099 595.906 572.566 595.119 572.724 594.306C572.881 593.492 573.672 592.961 574.481 593.118C575.664 593.347 688.919 615.251 696.61 616.774C696.727 616.783 696.845 616.807 696.961 616.844C696.997 616.852 697.017 616.856 697.02 616.857L697.017 616.864C697.34 616.983 697.634 617.206 697.82 617.48C698.058 617.784 698.67 618.576 699.067 629.667C699.091 630.34 698.664 630.947 698.021 631.15C687.394 634.519 671.873 639.801 655.441 645.394C628.768 654.472 598.537 664.761 576.592 671.239C576.45 671.281 576.306 671.301 576.165 671.301Z" fill="black"/>
<path d="M574.785 617.441C574.111 617.441 573.5 616.985 573.33 616.302C573.131 615.498 573.621 614.684 574.425 614.485L601.694 607.719L574.116 602.657C573.301 602.508 572.762 601.725 572.911 600.911C573.06 600.096 573.849 599.557 574.657 599.706L609.077 606.025C609.772 606.153 610.284 606.748 610.306 607.455C610.328 608.161 609.854 608.787 609.168 608.957L575.148 617.397C575.027 617.427 574.904 617.441 574.785 617.441Z" fill="black"/>
<path d="M165.122 533.242C164.368 533.242 163.719 532.675 163.633 531.908C163.541 531.085 164.134 530.343 164.958 530.251C165.271 530.217 165.799 530.192 166.496 530.164C171.324 529.969 184.149 529.447 188.387 521.344C188.648 520.781 188.79 520.19 188.79 519.601C188.79 507.036 171.98 498.869 160.681 496.446C159.871 496.272 159.355 495.474 159.529 494.665C159.703 493.854 160.5 493.34 161.31 493.513C173.562 496.141 191.79 505.257 191.79 519.602C191.79 520.624 191.55 521.658 191.076 522.674C186.005 532.375 171.921 532.947 166.619 533.163C166.018 533.187 165.562 533.204 165.291 533.234C165.235 533.24 165.179 533.243 165.123 533.243L165.122 533.242Z" fill="black"/>
<path d="M149.448 532.259H149.427C149.327 532.259 149.228 532.249 149.131 532.23L147.199 531.842C144.581 531.319 141.875 530.777 139.994 530.346C139.564 530.254 139.159 530.158 138.817 530.073C136.494 529.485 135.55 529.225 133.237 528.402C132.456 528.125 132.049 527.266 132.327 526.486C132.605 525.706 133.464 525.297 134.243 525.576C136.385 526.339 137.211 526.571 139.549 527.164C139.859 527.241 140.232 527.329 140.645 527.419C142.504 527.844 145.19 528.381 147.788 528.901L149.693 529.283C150.397 529.408 150.939 530.021 150.939 530.76C150.939 531.588 150.278 532.26 149.449 532.26L149.448 532.259Z" fill="black"/>
<path d="M125.234 524.922C124.957 524.922 124.677 524.846 124.426 524.685C118.379 520.81 110.097 515.503 110.097 508.34C110.097 507.807 110.326 507.272 110.838 506.606C111.107 506.256 111.47 505.853 111.95 505.374C114.836 502.478 122.087 496.87 128.191 493.879C129.694 493.144 131.033 492.616 132.171 492.311C134.299 491.736 137.165 491.432 140.686 491.41H140.696C141.52 491.41 142.191 492.075 142.196 492.9C142.201 493.728 141.534 494.404 140.706 494.41C137.489 494.431 134.808 494.707 132.952 495.209C131.997 495.465 130.84 495.924 129.511 496.574C123.779 499.383 116.744 504.814 114.074 507.494C113.597 507.972 113.345 508.269 113.217 508.435C113.168 508.499 113.131 508.551 113.103 508.592C113.333 514.015 120.967 518.906 126.044 522.16C126.742 522.606 126.945 523.534 126.498 524.232C126.211 524.678 125.728 524.922 125.234 524.922Z" fill="black"/>
<path d="M198.876 566.878C194.298 566.878 188.65 565.041 184.516 561.946C180.304 558.792 178.207 554.731 178.611 550.513C179.11 545.316 184.639 542.444 189.986 539.667C194.253 537.451 198.664 535.16 198.749 532.261C198.801 530.429 197.161 527.4 189.05 523.382C188.307 523.015 188.004 522.115 188.371 521.372C188.74 520.63 189.639 520.326 190.381 520.694C198.144 524.538 201.862 528.349 201.748 532.347C201.611 537.009 196.405 539.713 191.369 542.328C186.733 544.735 181.94 547.224 181.597 550.799C181.212 554.818 183.95 557.773 186.314 559.543C191.522 563.441 198.84 564.68 202.153 563.355C204.594 562.378 205.249 559.947 204.634 558.05C203.914 555.828 201.174 553.708 195.826 555.056C195.02 555.252 194.207 554.769 194.006 553.966C193.804 553.163 194.292 552.348 195.095 552.146C201.984 550.417 206.282 553.401 207.489 557.125C208.687 560.821 206.873 564.697 203.269 566.14C202.022 566.639 200.518 566.875 198.876 566.875V566.878Z" fill="black"/>
<path d="M160.996 496.478C160.553 496.478 160.114 496.283 159.818 495.908C159.304 495.259 159.415 494.315 160.065 493.802C161.512 492.658 162.549 491.252 162.984 489.843C163.214 489.144 163.292 488.476 163.223 487.832C163.012 485.867 161.49 484.167 160.095 483.504C158.199 482.612 155.783 483.276 154.09 483.993C151.802 484.963 149.308 486.629 146.678 488.942C145.027 490.42 143.393 492.087 141.831 493.89C141.343 494.457 140.841 495.048 140.35 495.661C139.831 496.307 138.888 496.409 138.241 495.891C137.595 495.371 137.492 494.428 138.011 493.782C138.524 493.144 139.047 492.526 139.559 491.93C141.208 490.027 142.932 488.268 144.686 486.698C147.566 484.164 150.333 482.327 152.919 481.23C156.156 479.861 159.08 479.711 161.377 480.792C163.533 481.817 165.858 484.291 166.205 487.513C166.32 488.584 166.197 489.675 165.841 490.755C165.228 492.74 163.87 494.617 161.924 496.155C161.649 496.373 161.32 496.478 160.995 496.478H160.996Z" fill="black"/>
<path d="M128.851 496.724C128.526 496.724 128.198 496.619 127.923 496.402C127.272 495.889 127.161 494.946 127.674 494.296C129.949 491.411 132.615 488.114 135.147 485.527C137.911 482.691 140.189 480.99 142.312 480.175C145.829 478.84 150.618 479.292 154.233 481.299C154.957 481.701 155.218 482.614 154.816 483.338C154.415 484.063 153.503 484.324 152.776 483.922C149.934 482.345 146.07 481.957 143.38 482.978C141.705 483.621 139.712 485.141 137.293 487.623C134.858 490.111 132.255 493.331 130.029 496.153C129.733 496.528 129.295 496.724 128.851 496.724Z" fill="black"/>
<path d="M123.944 507.341C124.344 508.448 127.038 508.663 129.272 508.109C130.573 507.791 133.873 506.275 133.811 505.168C133.739 504.051 131.741 504.102 128.831 504.871C126.392 505.517 123.585 506.346 123.943 507.34L123.944 507.341Z" fill="black"/>
<path d="M126.854 509.905C124.96 509.905 123.09 509.393 122.533 507.851C122.339 507.312 122.381 506.733 122.652 506.217C123.301 504.979 125.113 504.304 128.448 503.421C131.475 502.622 133.302 502.609 134.373 503.38C134.932 503.782 135.264 504.383 135.309 505.071C135.467 507.908 129.688 509.551 129.629 509.566C128.817 509.767 127.832 509.904 126.855 509.904L126.854 509.905ZM130.608 506C130.215 506.076 129.754 506.18 129.215 506.322C128.393 506.54 127.734 506.73 127.206 506.896C127.724 506.875 128.307 506.803 128.912 506.654C129.388 506.538 130.015 506.287 130.608 506Z" fill="black"/>
<path d="M119.988 508.284C119.47 508.284 118.966 508.015 118.688 507.535C118.273 506.817 118.519 505.9 119.236 505.485L132.989 497.536C133.707 497.122 134.623 497.367 135.038 498.084C135.453 498.802 135.207 499.719 134.49 500.134L120.737 508.083C120.501 508.22 120.242 508.284 119.988 508.284Z" fill="black"/>
<path d="M130.267 531.423C129.329 531.423 128.236 531.279 126.994 530.993C118.856 529.115 117.181 527.138 117.209 525.808C117.209 524.37 117.889 523.054 119.075 522.226C120.218 521.43 122.303 520.746 125.753 522.013C126.53 522.299 126.929 523.161 126.643 523.939C126.357 524.716 125.497 525.114 124.718 524.83C122.998 524.196 121.567 524.145 120.792 524.686C120.472 524.91 120.324 525.199 120.258 525.452C121.074 526.008 123.674 527.148 127.668 528.069C129.96 528.598 131.183 528.412 131.416 528.24L131.688 527.998C132.004 527.69 132.281 527.232 132.487 526.639C132.758 525.857 133.611 525.441 134.396 525.714C135.179 525.985 135.593 526.841 135.321 527.623C134.957 528.671 134.435 529.514 133.727 530.198L133.405 530.486C132.704 531.11 131.653 531.423 130.267 531.423ZM120.208 525.813V525.839C120.208 525.83 120.208 525.821 120.208 525.813Z" fill="black"/>
<path d="M154.959 537.76C151.934 537.76 149.028 537.359 147.494 536.327C146.534 535.682 146.156 534.555 146.508 533.382C146.734 532.631 147.272 531.843 148.002 531.159C147.967 531.031 147.948 530.897 147.948 530.759C147.948 529.931 148.619 529.259 149.448 529.259H152.409C153.235 529.259 153.906 529.927 153.909 530.753C153.912 531.579 153.247 532.252 152.421 532.259C151.201 532.269 149.864 533.372 149.48 534.017C152.46 535.49 161.688 534.452 163.083 533.648C163.08 533.639 163.145 533.555 163.235 533.391C163.472 532.93 163.631 532.278 163.625 531.761C163.618 531.388 163.523 531.2 163.483 531.138C163.036 530.44 163.239 529.512 163.937 529.066C164.635 528.618 165.562 528.823 166.009 529.519C166.395 530.123 166.608 530.88 166.624 531.712C166.637 532.725 166.36 533.873 165.884 534.797C165.58 535.354 165.258 535.758 164.909 536.029C163.65 536.974 159.189 537.759 154.959 537.759V537.76Z" fill="black"/>
<path d="M112.896 506.561C112.876 505.431 111.876 503.681 110.226 502.551C109.376 501.981 107.206 502.591 106.996 503.731C106.696 505.311 110.096 507.661 111.836 507.661H111.926" fill="black"/>
<path d="M111.926 509.161C109.991 509.161 107.601 507.654 106.445 506.259C105.466 505.076 105.403 504.08 105.522 503.452C105.698 502.498 106.436 501.677 107.547 501.208C108.499 500.805 109.992 500.589 111.06 501.305C112.998 502.633 114.364 504.781 114.395 506.535C114.407 507.216 113.964 507.798 113.346 507.992C113.204 508.661 112.64 509.161 111.926 509.161ZM108.537 504.057C108.862 504.682 110.245 505.713 111.261 506.05C111.017 505.433 110.433 504.534 109.449 503.837C109.221 503.8 108.777 503.914 108.537 504.057Z" fill="black"/>
<path d="M169.384 535.893C167.889 535.893 166.218 535.765 164.416 535.603C163.591 535.528 162.982 534.799 163.057 533.974C163.132 533.149 163.869 532.543 164.686 532.615C166.991 532.823 171.644 533.242 173.02 532.295C172.975 532.071 172.876 531.749 172.81 531.534L172.749 531.336C172.509 530.544 172.957 529.706 173.749 529.466C174.541 529.226 175.379 529.674 175.62 530.467L175.677 530.651C175.971 531.606 176.374 532.914 175.577 533.977C174.324 535.454 172.159 535.893 169.384 535.893Z" fill="black"/>
<path d="M138.733 532.842C136.462 532.842 133.132 531.69 131.624 530.18C131.039 529.594 131.039 528.644 131.624 528.059C132.21 527.473 133.16 527.473 133.746 528.059C134.947 529.26 138.079 529.972 138.977 529.849C139.164 529.676 139.36 529.38 139.342 529.093C139.29 528.266 139.918 527.554 140.744 527.501C141.567 527.448 142.284 528.076 142.336 528.903C142.436 530.477 141.472 531.829 140.473 532.47C140.414 532.508 140.352 532.542 140.289 532.572C139.886 532.757 139.349 532.842 138.733 532.842Z" fill="black"/>
<path d="M94.6456 563.941C94.1826 563.941 93.7286 563.726 93.4366 563.331L86.3116 553.651C85.9726 553.19 85.9246 552.578 86.1876 552.07L88.9436 546.76C89.0836 546.49 89.3016 546.27 89.5696 546.126L106.577 537.066C106.968 536.859 107.431 536.835 107.841 536.999L128.027 545.105C128.291 545.21 128.52 545.39 128.686 545.622L133.573 552.423C133.828 552.778 133.916 553.228 133.812 553.653C133.708 554.078 133.424 554.437 133.033 554.635L115.018 563.778C114.537 564.023 113.96 563.99 113.509 563.689L105.265 558.214L95.3756 563.748C95.1456 563.878 94.8936 563.939 94.6446 563.939L94.6456 563.941ZM105.333 554.959C105.623 554.959 105.912 555.043 106.163 555.21L114.441 560.708L130.115 552.753L126.504 547.728L107.371 540.044L91.3916 548.556L89.2806 552.624L95.0676 560.485L104.601 555.15C104.829 555.022 105.081 554.959 105.333 554.959Z" fill="black"/>
<path d="M777.543 575.466C777.469 575.466 777.395 575.461 777.319 575.449C776.5 575.327 775.934 574.563 776.057 573.744C780.925 541.17 778.678 513.118 777.036 492.635C775.699 475.948 774.733 463.892 778.286 457.645C787.693 441.071 797.848 430.968 807.668 421.198C821.835 407.102 835.217 393.788 842.561 362.544C846.539 345.601 844.992 307.319 843.967 281.987C843.362 266.999 843.071 259.077 843.628 256.921C845.059 251.355 846.12 245.906 846.782 240.726C850.647 210.282 840.519 186.805 819.692 177.926C814.365 175.655 805.471 178.323 801.987 185.167C800.961 187.173 799.709 191.581 799.476 194.95C799.42 195.777 798.695 196.395 797.877 196.344C797.05 196.287 796.426 195.571 796.483 194.744C796.719 191.301 797.989 186.392 799.313 183.804C803.583 175.422 814.214 172.33 820.868 175.167C843.001 184.602 853.801 209.252 849.758 241.106C849.079 246.41 847.994 251.983 846.532 257.67C846.059 259.499 846.478 269.864 846.964 281.866C847.994 307.361 849.551 345.888 845.48 363.229C837.941 395.309 824.263 408.917 809.783 423.325C800.106 432.953 790.1 442.909 780.894 459.127C777.797 464.573 778.732 476.243 780.027 492.396C781.679 513.024 783.943 541.275 779.023 574.189C778.912 574.933 778.272 575.467 777.542 575.467L777.543 575.466Z" fill="black"/>
<path d="M788.169 223.206C787.455 223.206 786.822 222.693 786.693 221.966C786.19 219.109 785.429 214.791 786.485 209.026C787.819 201.667 791.894 195.851 797.384 193.47C797.439 193.446 797.494 193.426 797.552 193.408C802.045 192.068 808.609 193.236 813.883 196.316C817.627 198.503 822.43 202.597 824.043 209.683C824.227 210.491 823.721 211.295 822.913 211.478C822.096 211.664 821.301 211.155 821.117 210.349C819.743 204.312 815.601 200.794 812.37 198.907C807.133 195.85 801.534 195.392 798.494 196.259C793.967 198.264 790.584 203.23 789.435 209.564C788.477 214.802 789.153 218.643 789.647 221.446C789.791 222.262 789.246 223.04 788.429 223.183C788.341 223.199 788.254 223.206 788.167 223.206H788.169Z" fill="black"/>
<path d="M792.965 249.674C792.953 249.674 792.942 249.674 792.93 249.674C784.84 249.487 779.887 245.422 779.681 238.799C779.128 221.075 790.427 218.327 795.312 217.969C802.754 217.427 810.326 218.988 815.247 233.959C815.506 234.746 815.077 235.594 814.291 235.852C813.501 236.112 812.655 235.683 812.397 234.895C807.907 221.232 801.602 220.517 795.531 220.961C790.537 221.328 782.224 224.12 782.679 238.705C782.897 245.688 789.968 246.604 792.998 246.674C793.827 246.693 794.482 247.38 794.464 248.208C794.444 249.024 793.776 249.673 792.965 249.673V249.674Z" fill="black"/>
<path d="M552.401 171.11C551.935 171.11 551.496 171.048 551.09 170.918C550.301 170.665 549.866 169.82 550.119 169.032C550.372 168.244 551.216 167.809 552.006 168.062C553.329 168.484 557.69 166.451 560.581 161.998C563.597 157.354 564.126 150.434 561.878 145.134C560.265 142.42 555.88 138.912 549.973 137.547C546.324 136.703 540.893 136.423 535.747 139.882C535.059 140.344 534.128 140.162 533.665 139.474C533.203 138.786 533.386 137.854 534.073 137.392C540.112 133.331 546.419 133.645 550.648 134.623C556.596 135.998 562.17 139.648 564.518 143.706C564.547 143.757 564.574 143.809 564.597 143.863C567.302 150.14 566.7 158.084 563.096 163.632C560.254 168.008 555.684 171.111 552.4 171.111L552.401 171.11Z" fill="black"/>
<path d="M538.949 191.451C535.154 191.451 531.511 189.813 529.3 187.825C528.684 187.271 528.634 186.323 529.188 185.707C529.74 185.091 530.689 185.04 531.306 185.595C534.392 188.369 541.013 190.313 545.428 185.676C555.574 175.02 547.995 166.123 547.098 165.144C542.982 160.66 537.907 156.854 525.267 163.719C524.539 164.114 523.629 163.845 523.233 163.116C522.837 162.388 523.107 161.477 523.836 161.082C537.682 153.562 544.262 157.615 549.31 163.116C550.113 163.992 552.787 167.221 553.503 172.011C554.066 175.769 553.499 181.55 547.601 187.744C545.046 190.428 541.951 191.452 538.951 191.452L538.949 191.451Z" fill="black"/>
<path d="M725.919 393.485C725.218 393.485 724.591 392.991 724.449 392.277C724.288 391.465 724.816 390.674 725.629 390.513C758.829 383.93 781.731 364.945 786.424 350.424C791.717 334.03 794.642 274.886 791.472 248.353C791.373 247.531 791.96 246.784 792.784 246.686C793.608 246.592 794.353 247.175 794.451 247.998C797.654 274.805 794.658 334.689 789.28 351.347C784.324 366.681 760.536 386.651 726.214 393.457C726.115 393.477 726.016 393.485 725.919 393.485Z" fill="black"/>
<path d="M639.576 398.597C616.888 398.597 593.965 390.019 573.856 373.787C573.211 373.266 573.111 372.322 573.631 371.678C574.151 371.032 575.096 370.932 575.74 371.453C598.995 390.224 626.065 398.481 651.979 394.7L652.273 396.173L652.412 397.668C648.157 398.289 643.87 398.597 639.576 398.597Z" fill="black"/>
<path d="M533.251 354.599C532.894 354.599 532.534 354.472 532.248 354.214C516.13 339.72 505.359 321.659 500.235 300.53C496.411 284.764 496.686 270.286 498.084 262.678C502.792 237.041 509.068 209.983 529.148 185.752C529.676 185.114 530.621 185.024 531.26 185.554C531.898 186.082 531.987 187.028 531.458 187.666C511.823 211.36 505.863 236.925 501.034 263.22C500.941 263.725 492.238 314.202 534.254 351.983C534.87 352.537 534.92 353.485 534.366 354.101C534.07 354.43 533.661 354.598 533.251 354.598V354.599Z" fill="black"/>
<path d="M430.363 462.275C430.25 462.275 430.135 462.262 430.021 462.236C429.214 462.048 428.712 461.241 428.9 460.434C433.091 442.455 441.927 422.835 448.379 408.51C452.156 400.121 455.14 393.496 455.95 390.024C460.481 370.63 455.699 348.386 451.857 330.512C450.471 324.066 449.274 318.498 448.712 313.917C444.538 279.775 451.019 256.006 467.128 215.639C474.902 196.167 481.812 185.541 485.524 179.832C487.174 177.293 488.479 175.288 488.557 174.436C490.249 156.133 494.206 148.196 501.895 138.285C517.464 118.18 540.008 115.565 548.978 115.375C557.518 115.192 566.078 122.944 566.539 131.322C566.857 137.123 565.819 139.592 564.816 141.98C564.539 142.64 564.277 143.263 564.048 143.956C563.862 144.576 563.289 145.03 562.61 145.03C561.782 145.03 561.11 144.363 561.11 143.535V143.525C561.11 143.366 561.135 143.209 561.184 143.058C561.454 142.236 561.756 141.516 562.048 140.819C562.96 138.649 563.822 136.598 563.541 131.487C563.17 124.723 555.969 118.239 549.04 118.374C540.501 118.556 519.043 121.038 504.265 140.123C496.787 149.761 493.176 157.042 491.543 174.713C491.396 176.302 490.203 178.137 488.037 181.467C484.381 187.089 477.576 197.554 469.912 216.751C450.225 266.087 448.379 286.487 451.688 313.552C452.234 317.999 453.418 323.505 454.788 329.881C458.487 347.089 463.553 370.657 458.87 390.705C457.994 394.462 454.957 401.205 451.113 409.741C444.712 423.955 435.946 443.421 431.821 461.115C431.659 461.807 431.043 462.274 430.362 462.274L430.363 462.275Z" fill="black"/>
<path d="M728.19 305.661C720.378 305.661 711.069 303.57 703.287 298.262C694.725 292.42 687.632 282.147 686.04 273.279C685.306 269.191 685.85 265.716 687.611 263.231C690.539 259.102 696.9 257.499 705.538 258.729C713.108 259.804 721.47 262.959 727.902 267.167C733.554 270.865 739.157 276.287 742.888 281.669C747.414 288.198 748.74 293.849 746.721 298.011C745.247 301.049 741.952 303.325 737.193 304.593C734.629 305.276 731.547 305.662 728.19 305.662V305.661ZM690.058 264.966C688.772 266.779 688.404 269.471 688.992 272.749C690.43 280.758 697.153 290.446 704.978 295.784C714.865 302.529 728.281 303.863 736.42 301.694C740.256 300.673 742.956 298.9 744.022 296.702C747.216 290.117 737.096 276.768 726.259 269.678C711.712 260.16 694.195 259.134 690.058 264.966Z" fill="black"/>
<path d="M601.545 260.363C599.381 260.363 597.237 260.222 595.172 259.93C580.377 257.835 563.452 247.135 564.625 236.988C565.187 232.127 569.709 227.795 577.357 224.791C584.213 222.098 592.63 220.944 599.861 221.701C611.01 222.869 623.254 228.981 628.973 236.233C631.41 239.323 632.498 242.472 632.121 245.338C631.751 248.147 629.946 250.855 626.9 253.168C621.004 257.646 611.057 260.363 601.545 260.363ZM595.136 224.457C581.793 224.457 568.406 230.416 567.606 237.332C566.74 244.822 581.126 254.911 595.592 256.959C605.859 258.41 618.535 255.754 625.087 250.778C627.481 248.96 628.885 246.943 629.148 244.945C629.418 242.9 628.543 240.529 626.618 238.09C621.438 231.522 609.802 225.758 599.55 224.683C598.091 224.53 596.613 224.457 595.137 224.457H595.136Z" fill="black"/>
<path d="M598.053 243.05C599.334 243.191 600.211 246.168 600.089 248.478C599.964 250.839 598.733 253.745 597.375 253.737C596.122 253.729 594.948 251.241 594.83 249.157C594.659 246.134 596.649 242.896 598.053 243.05Z" fill="black"/>
<path d="M597.382 255.237H597.365C594.844 255.22 593.469 251.65 593.332 249.242C593.178 246.51 594.449 243.798 595.786 242.531C596.752 241.614 597.642 241.499 598.218 241.559C600.754 241.837 601.728 245.9 601.587 248.558C601.445 251.256 600.011 255.237 597.382 255.237ZM597.851 244.698C597.247 245.275 596.215 247.096 596.328 249.073C596.402 250.382 596.975 251.644 597.379 252.11C597.835 251.579 598.505 250.029 598.591 248.401C598.672 246.86 598.223 245.312 597.852 244.699L597.851 244.698Z" fill="black"/>
<path d="M710.458 282.632C711.597 283.236 711.311 286.326 710.344 288.428C709.356 290.576 707.138 292.822 705.879 292.312C704.718 291.842 704.546 289.096 705.206 287.116C706.164 284.244 709.211 281.97 710.458 282.632Z" fill="black"/>
<path d="M706.273 293.889C705.951 293.889 705.63 293.83 705.316 293.703C702.98 292.757 703.021 288.931 703.784 286.642C704.648 284.047 706.832 281.996 708.541 281.312C709.778 280.816 710.649 281.035 711.16 281.307C713.415 282.504 712.818 286.638 711.705 289.056C710.72 291.2 708.458 293.889 706.273 293.889ZM709.662 284.088C708.887 284.401 707.256 285.712 706.63 287.59C706.215 288.835 706.282 290.219 706.484 290.801C707.104 290.475 708.299 289.283 708.98 287.801C709.626 286.4 709.78 284.794 709.662 284.088Z" fill="black"/>
<path d="M673.9 337.909C658.852 337.909 643.736 326.703 637.317 316.379C636.879 315.675 637.095 314.751 637.798 314.313C638.499 313.875 639.425 314.091 639.863 314.795C643.582 320.775 650.733 327.055 658.084 330.793C664.524 334.069 674.214 337.09 683.811 332.881C684.571 332.55 685.455 332.893 685.788 333.652C686.12 334.411 685.775 335.296 685.017 335.628C681.407 337.212 677.656 337.91 673.901 337.91L673.9 337.909Z" fill="black"/>
<path d="M617.041 322.451C606.556 322.451 596.795 318.622 589.307 311.142C588.721 310.557 588.721 309.607 589.307 309.021C589.893 308.434 590.843 308.434 591.429 309.021C603.136 320.716 620.952 322.719 637.922 314.246C638.662 313.876 639.564 314.176 639.934 314.918C640.304 315.659 640.003 316.56 639.262 316.93C631.85 320.631 624.274 322.452 617.042 322.452L617.041 322.451Z" fill="black"/>
<path d="M647.713 355.298C643.573 355.298 640.427 352.667 637.381 350.12C635.134 348.241 633.012 346.466 630.793 345.997C626.895 345.172 624.881 345.239 622.928 345.3C619.884 345.398 617.003 345.491 608.634 342.752C599.688 339.823 598.774 323.899 598.795 317.188C598.798 316.361 599.469 315.693 600.295 315.693H600.3C601.128 315.696 601.798 316.369 601.795 317.198C601.763 326.933 603.788 338.009 609.567 339.901C617.434 342.477 620.057 342.395 622.831 342.302C624.858 342.238 627.157 342.162 631.414 343.062C634.363 343.686 636.876 345.787 639.306 347.819C642.114 350.168 644.759 352.376 647.818 352.301C660.788 351.145 665.56 343.057 669.045 337.151C669.325 336.675 669.597 336.215 669.861 335.776C670.291 335.066 671.212 334.84 671.922 335.268C672.631 335.697 672.858 336.619 672.43 337.328C672.169 337.758 671.904 338.209 671.628 338.675C668.029 344.776 662.589 353.996 647.993 355.294C647.899 355.297 647.804 355.298 647.713 355.298Z" fill="black"/>
<path d="M700.842 216.787C700.66 216.787 700.477 216.754 700.298 216.684C695.648 214.873 693.396 212.104 693.986 201.996C694.033 201.169 694.715 200.536 695.571 200.586C696.397 200.634 697.029 201.344 696.98 202.171C696.447 211.293 698.289 212.683 701.385 213.889C702.157 214.19 702.539 215.059 702.239 215.831C702.009 216.424 701.441 216.787 700.842 216.787Z" fill="black"/>
<path d="M664.258 195.063C663.833 195.063 663.412 194.884 663.115 194.536C662.578 193.905 662.653 192.958 663.284 192.421C667.885 188.501 668.487 186.679 668.844 183.163C668.927 182.339 669.665 181.741 670.488 181.822C671.312 181.905 671.913 182.641 671.829 183.466C671.39 187.8 670.376 190.32 665.23 194.704C664.948 194.945 664.602 195.062 664.258 195.062V195.063Z" fill="black"/>
<path d="M651.608 198.479C651.026 198.479 650.472 198.138 650.228 197.57C649.902 196.808 650.254 195.926 651.016 195.6C657.001 193.034 659.715 187.972 660.22 184.418C660.336 183.598 661.101 183.027 661.916 183.144C662.736 183.26 663.307 184.02 663.19 184.84C662.545 189.373 659.319 195.304 652.197 198.357C652.005 198.44 651.804 198.479 651.607 198.479H651.608Z" fill="black"/>
<path d="M845.075 258.791C844.763 258.791 844.447 258.694 844.179 258.493C843.515 257.997 843.379 257.057 843.875 256.393C853.934 242.933 872.388 207.818 878.41 183.432C884.416 159.14 887.65 130.305 887.516 102.239C887.501 100.068 886.504 97.0324 881.836 94.9184C869.835 89.4804 757.35 91.0474 714.181 128.663C713.555 129.206 712.609 129.142 712.065 128.517C711.521 127.892 711.586 126.945 712.211 126.401C725.447 114.868 753.084 99.6444 809.577 92.6134C845.761 88.1104 876.771 89.3293 883.075 92.1853C889.511 95.1003 890.5 99.7244 890.516 102.221C890.651 130.531 887.385 159.626 881.322 184.151C875.212 208.898 856.485 244.53 846.277 258.189C845.983 258.583 845.532 258.791 845.075 258.791Z" fill="black"/>
<path d="M494.576 154.751C493.757 154.751 493.088 154.093 493.076 153.272C492.801 132.955 495.169 103.578 501.078 83.7444C508.285 59.5454 520.228 32.8144 534.706 8.47541C535.991 6.33041 539.19 2.85641 546.214 3.60041C553.012 4.32641 579.871 18.4494 608.171 39.8034C652.54 73.2824 668.989 99.9414 674.976 116.409C675.258 117.187 674.857 118.048 674.079 118.331C673.302 118.616 672.439 118.212 672.156 117.434C652.471 63.2784 558.925 7.97441 545.896 6.58341C540.796 6.03941 538.399 8.14841 537.283 10.0124C522.929 34.1404 511.092 60.6304 503.953 84.5994C498.134 104.13 495.804 133.141 496.076 153.23C496.087 154.059 495.425 154.739 494.597 154.751H494.576Z" fill="black"/>
<path d="M740.331 149.789C739.842 149.789 739.362 149.55 739.075 149.11C723.575 125.422 673.925 114.531 649.732 119.968C648.914 120.149 648.121 119.641 647.939 118.834C647.757 118.025 648.265 117.223 649.074 117.042C673.972 111.448 724.914 121.989 741.585 147.468C742.039 148.161 741.845 149.091 741.151 149.545C740.898 149.711 740.613 149.789 740.331 149.789Z" fill="black"/>
<path d="M638.631 317.317C638.483 317.317 638.33 317.295 638.18 317.247C637.39 316.998 636.951 316.156 637.201 315.366C637.438 314.612 637.642 313.82 637.851 313.012C638.074 312.153 638.303 311.264 638.582 310.37C638.828 309.58 639.664 309.135 640.461 309.385C641.251 309.632 641.692 310.473 641.445 311.263C641.184 312.098 640.967 312.939 640.755 313.763C640.541 314.594 640.318 315.452 640.062 316.268C639.86 316.908 639.269 317.318 638.631 317.318V317.317Z" fill="black"/>
<path d="M640.055 312.316C639.936 312.316 639.83 312.308 639.74 312.291C637.269 311.832 632.352 304.477 632.303 304.402C629 299.399 629.386 297.67 629.513 297.101C629.588 296.765 629.887 295.951 631.038 295.658C634.572 294.76 651.851 299.898 654.151 302.532C654.92 303.412 654.703 304.249 654.574 304.569C653.257 307.831 642.852 312.317 640.054 312.317L640.055 312.316ZM632.573 298.517C633.444 301.107 638.14 308.068 640.31 309.316C641.065 309.211 643.463 308.455 646.375 307.069C649.111 305.767 650.595 304.718 651.294 304.058C648.216 302.213 636.244 298.673 632.573 298.517Z" fill="black"/>
<path d="M580.499 260.485C580.389 260.485 580.275 260.472 580.162 260.446C577.036 259.728 569.252 257.251 564.517 249.761C564.074 249.061 564.283 248.134 564.983 247.691C565.683 247.249 566.61 247.457 567.052 248.157C571.192 254.704 578.069 256.886 580.833 257.521C581.64 257.706 582.145 258.511 581.959 259.318C581.8 260.013 581.182 260.483 580.498 260.483L580.499 260.485Z" fill="black"/>
<path d="M577.26 265.71H577.236C575.695 265.685 567.705 263.45 562.146 257.403C561.585 256.793 561.625 255.844 562.236 255.283C562.844 254.722 563.793 254.762 564.355 255.372C569.154 260.594 576.152 262.661 577.29 262.71C578.109 262.745 578.767 263.433 578.742 264.253C578.719 265.065 578.07 265.709 577.261 265.709L577.26 265.71Z" fill="black"/>
<path d="M724.993 312.124C720.683 312.124 716.517 310.961 711.967 308.577C711.234 308.193 710.95 307.286 711.334 306.552C711.721 305.818 712.626 305.535 713.359 305.92C719.982 309.389 725.439 309.991 732.198 307.994C732.993 307.759 733.827 308.213 734.061 309.008C734.295 309.803 733.842 310.636 733.047 310.871C730.234 311.703 727.588 312.124 724.993 312.124Z" fill="black"/>
<path d="M724.354 318.328C720.085 318.328 716.501 317.247 714.011 316.185C713.249 315.86 712.895 314.978 713.22 314.217C713.545 313.455 714.424 313.103 715.189 313.425C718.137 314.683 722.813 315.97 728.341 314.968C729.156 314.82 729.937 315.36 730.085 316.176C730.233 316.991 729.692 317.772 728.878 317.92C727.303 318.207 725.789 318.328 724.354 318.328Z" fill="black"/>
<path d="M530.946 284.295C530.685 284.295 530.417 284.264 530.141 284.202C525.542 283.159 524.646 276.686 527.142 262.56C527.287 261.745 528.071 261.201 528.88 261.344C529.696 261.488 530.24 262.266 530.097 263.082C527.431 278.167 529.396 280.956 530.805 281.275C530.953 281.309 530.969 281.3 531.021 281.267C531.352 281.052 532.539 279.836 533.875 273.197C534.039 272.385 534.837 271.855 535.642 272.023C536.454 272.187 536.98 272.977 536.817 273.79C535.318 281.229 533.803 283.04 532.651 283.785C532.128 284.124 531.557 284.294 530.946 284.294V284.295Z" fill="black"/>
<path d="M531.735 311.118C531.528 311.118 531.316 311.094 531.1 311.044C527.63 310.258 527.013 305.533 528.969 294.736C529.116 293.92 529.897 293.384 530.712 293.527C531.526 293.675 532.068 294.455 531.92 295.27C530.031 305.703 531.187 307.671 531.621 308.037C531.904 307.656 532.58 306.395 533.386 302.439C533.551 301.627 534.339 301.102 535.156 301.269C535.968 301.434 536.491 302.227 536.326 303.038C535.17 308.714 534.056 310.098 533.12 310.703C532.692 310.98 532.228 311.119 531.735 311.119V311.118Z" fill="black"/>
<path d="M789.226 189.636C788.593 189.636 788.005 189.233 787.799 188.599C787.28 187.003 785.146 181.586 779.459 178.905C778.71 178.551 778.389 177.657 778.742 176.908C779.096 176.159 779.991 175.84 780.738 176.191C787.512 179.386 790.039 185.786 790.652 187.671C790.908 188.459 790.477 189.305 789.689 189.562C789.535 189.612 789.379 189.636 789.226 189.636Z" fill="black"/>
<path d="M785.307 194.555C784.874 194.555 784.446 194.369 784.149 194.009C782.779 192.346 779.77 189.345 775.019 187.921C774.225 187.683 773.775 186.847 774.013 186.053C774.251 185.259 775.092 184.812 775.88 185.047C781.391 186.7 784.876 190.176 786.463 192.101C786.99 192.74 786.9 193.685 786.26 194.212C785.981 194.442 785.643 194.555 785.307 194.555Z" fill="black"/>
<path d="M458.332 204.368C457.728 204.368 457.16 204.001 456.931 203.404C452.959 193.038 454.454 183.28 456.408 176.919C456.652 176.127 457.491 175.685 458.283 175.925C459.075 176.169 459.52 177.008 459.277 177.8C457.462 183.71 456.068 192.763 459.734 202.331C460.03 203.104 459.644 203.972 458.87 204.269C458.694 204.336 458.512 204.369 458.334 204.369L458.332 204.368Z" fill="black"/>
<path d="M443.617 209.273C443.014 209.273 442.446 208.907 442.217 208.312C437.673 196.517 438.878 185.308 440.689 177.981C440.888 177.177 441.705 176.69 442.505 176.885C443.309 177.084 443.8 177.897 443.601 178.701C441.893 185.609 440.753 196.167 445.017 207.234C445.315 208.007 444.93 208.875 444.156 209.173C443.979 209.241 443.797 209.274 443.617 209.274V209.273Z" fill="black"/>
<path d="M867.813 304.106C867.352 304.106 866.898 303.895 866.604 303.495C866.113 302.828 866.255 301.889 866.922 301.398C875.637 294.983 877.515 284.794 877.917 280.711C878 279.887 878.748 279.284 879.558 279.366C880.382 279.447 880.985 280.181 880.904 281.006C880.462 285.488 878.387 296.685 868.702 303.814C868.433 304.011 868.122 304.106 867.813 304.106Z" fill="black"/>
<path d="M873.613 317.277C873.101 317.277 872.601 317.014 872.321 316.541C871.899 315.829 872.134 314.908 872.847 314.486C881.003 309.655 884.822 299.513 885.175 297.074C885.293 296.255 886.059 295.682 886.874 295.805C887.694 295.924 888.263 296.684 888.144 297.505C887.68 300.704 883.391 311.729 874.376 317.067C874.136 317.209 873.873 317.276 873.612 317.276L873.613 317.277Z" fill="black"/>
<path d="M649.144 339.199C648.844 339.199 648.563 339.153 648.304 339.053C646.272 338.265 645.909 335.325 645.116 328.883C644.95 327.536 644.767 326.055 644.551 324.453C644.44 323.632 645.015 322.876 645.836 322.765C646.657 322.658 647.413 323.229 647.524 324.05C647.743 325.665 647.926 327.158 648.093 328.515C648.498 331.8 648.916 335.189 649.433 336.171C650.718 335.813 654.201 333.194 655.928 331.032C656.445 330.385 657.389 330.278 658.036 330.796C658.682 331.313 658.789 332.257 658.271 332.904C657.093 334.379 652.195 339.198 649.143 339.198L649.144 339.199Z" fill="black"/>
<path d="M694.293 564.355C694.227 564.355 694.16 564.351 694.093 564.342C693.272 564.233 692.695 563.478 692.804 562.656C695.109 545.362 694.759 528.136 691.765 511.459C684.62 471.613 665.777 448.19 655.18 437.773C654.589 437.193 654.581 436.243 655.162 435.652C655.742 435.061 656.692 435.054 657.283 435.634C668.134 446.3 687.426 470.265 694.718 510.929C697.767 527.912 698.123 545.45 695.779 563.052C695.678 563.806 695.034 564.354 694.294 564.354L694.293 564.355Z" fill="black"/>
<path d="M654.049 455.253C653.514 455.253 652.996 454.966 652.726 454.462C647.764 445.204 640.662 437.311 632.186 431.636C631.498 431.175 631.314 430.243 631.775 429.555C632.236 428.867 633.168 428.683 633.856 429.144C642.738 435.091 650.177 443.356 655.371 453.044C655.763 453.774 655.487 454.684 654.758 455.075C654.532 455.196 654.288 455.253 654.049 455.253Z" fill="black"/>
<path d="M631.833 445.35C631.399 445.35 630.969 445.162 630.673 444.801C623.578 436.155 618.72 432.335 605.573 428.124C604.785 427.871 604.349 427.026 604.602 426.237C604.855 425.449 605.699 425.014 606.489 425.266C620.548 429.77 625.816 434.152 632.991 442.898C633.517 443.539 633.424 444.483 632.783 445.008C632.505 445.237 632.168 445.35 631.833 445.35Z" fill="black"/>
<path d="M513.893 472.8C513.833 472.8 513.773 472.797 513.712 472.789C512.89 472.69 512.303 471.943 512.401 471.121C514.402 454.43 529.429 441.177 534.804 438.956C535.57 438.641 536.447 439.005 536.763 439.77C537.079 440.535 536.715 441.413 535.949 441.729C530.599 443.939 517.148 456.726 515.38 471.478C515.289 472.24 514.642 472.8 513.893 472.8Z" fill="black"/>
<path d="M657.477 174.393C657.013 174.123 656.441 174.123 655.975 174.39C655.899 174.434 648.246 178.811 640.005 181.052C635.383 182.308 628.154 183.998 620.502 185.786C607.661 188.787 593.106 192.189 585.857 194.703C582.73 195.787 570.616 208.641 566.977 212.555C566.475 213.095 566.44 213.92 566.894 214.501C567.187 214.876 567.627 215.077 568.077 215.077C568.324 215.077 568.574 215.016 568.803 214.889C587.647 204.448 621.602 197.193 639.844 193.296C645.488 192.09 649.566 191.219 651.234 190.663C658.095 188.375 658.222 176.212 658.224 175.696C658.226 175.159 657.941 174.663 657.477 174.393Z" fill="black"/>
<path d="M711.259 196.033C706.822 190.327 705.82 187.021 705.813 186.997C705.627 186.34 705 185.867 704.339 185.904C703.656 185.917 703.068 186.39 702.909 187.054C701.221 194.105 698.747 206.311 701.147 208.835L704.678 212.543C724.341 233.18 736.21 245.636 751.824 272.744C752.097 273.219 752.599 273.495 753.124 273.495C753.282 273.495 753.441 273.47 753.598 273.418C754.275 273.193 754.699 272.523 754.614 271.815C753.459 262.238 751.283 245.883 749.684 243.954C741.496 234.077 714.655 200.4 711.258 196.032L711.259 196.033Z" fill="black"/>
<path d="M574.188 117.022C574.486 117.874 575.292 118.409 576.177 118.409C576.419 118.409 576.668 118.369 576.914 118.284L590.498 113.143C591.132 112.896 591.597 112.384 591.766 111.757C591.898 111.34 591.884 110.877 591.72 110.421L575.447 67.3594L603.308 85.0604C604.068 85.5424 605.049 85.4884 605.753 84.9254C606.463 84.3584 606.733 83.4004 606.418 82.5164L598.799 62.3794C598.577 61.7664 598.179 61.4394 597.948 61.3124L556.235 35.0434C555.286 34.4484 554.14 34.3364 553.095 34.7384C552.055 35.1364 551.282 35.9784 550.977 37.0394L537.05 84.3134C536.916 84.7544 536.93 85.2204 537.096 85.6824L544.723 105.841C545.046 106.695 545.878 107.232 546.788 107.207C547.693 107.17 548.471 106.562 548.722 105.692L557.911 73.9814L573.638 115.59L574.187 117.021L574.188 117.022Z" fill="black"/>
<path d="M865.482 112.316C864.764 111.464 863.717 111.003 862.614 111.071L813.391 113.433C812.928 113.451 812.492 113.616 812.11 113.926L795.572 127.747C794.872 128.332 794.626 129.296 794.959 130.146C795.291 130.989 796.124 131.524 797.025 131.476L828.717 129.814L795.661 157.419L794.423 159.491C793.76 160.237 793.714 161.389 794.384 162.237L803.697 173.38C804.138 173.899 804.775 174.172 805.422 174.123C805.86 174.111 806.293 173.947 806.67 173.642L842.005 144.137L834.431 176.262C834.224 177.137 834.597 178.047 835.358 178.528C835.703 178.746 836.094 178.855 836.486 178.855C836.967 178.855 837.45 178.692 837.854 178.367L854.376 164.559C854.773 164.236 855.029 163.814 855.103 163.407L866.225 115.384C866.475 114.292 866.204 113.174 865.482 112.317V112.316Z" fill="black"/>
<path d="M448.821 535.904L417.583 492.133L417.52 492.049C416.978 491.356 416.514 490.754 415.595 490.831C414.711 490.902 414.326 491.602 414.162 491.9C414.077 492.055 413.98 492.23 413.847 492.4L383.48 528.269C383.188 528.629 383.025 529.066 383.006 529.625L383.434 548.096C383.41 549.009 383.97 549.831 384.829 550.143C385.644 550.438 386.549 550.205 387.118 549.562L407.804 529.067L408.507 574.066L408.473 575.599C408.418 576.68 409.212 577.618 410.275 577.777L421.908 580.927L422.276 580.979H422.316C423.001 580.979 423.611 580.699 424.017 580.202C424.326 579.856 424.514 579.388 424.538 578.828L424.084 531.621L443.531 561.403L443.599 561.499C444.171 562.241 445.127 562.538 446.039 562.252C446.931 561.973 447.537 561.201 447.581 560.319L449.247 537.276C449.269 536.759 449.122 536.287 448.822 535.903L448.821 535.904Z" fill="black"/>
</svg>
