<svg width="20" height="20" viewBox="0 0 20 20" fill="none" xmlns="http://www.w3.org/2000/svg">
<path fill-rule="evenodd" clip-rule="evenodd" d="M0.435974 2.18404C0 3.03968 0 4.15979 0 6.4V13.6C0 15.8402 0 16.9603 0.435974 17.816C0.819467 18.5686 1.43139 19.1805 2.18404 19.564C3.03968 20 4.15979 20 6.4 20H13.6C15.8402 20 16.9603 20 17.816 19.564C18.5686 19.1805 19.1805 18.5686 19.564 17.816C20 16.9603 20 15.8402 20 13.6V6.4C20 4.15979 20 3.03968 19.564 2.18404C19.1805 1.43139 18.5686 0.819467 17.816 0.435974C16.9603 0 15.8402 0 13.6 0H6.4C4.15979 0 3.03968 0 2.18404 0.435974C1.43139 0.819467 0.819467 1.43139 0.435974 2.18404ZM15.5653 6.15824C15.2848 5.91979 14.8633 5.95386 14.6249 6.23441L9.42666 12.3506L5.93838 8.86234C5.67803 8.60199 5.25537 8.60199 4.99502 8.86234C4.73508 9.12268 4.73491 9.54449 4.99502 9.80472L8.99502 13.8047C9.12667 13.9364 9.30801 14.0066 9.49404 13.9991C9.67993 13.9914 9.85402 13.9065 9.97451 13.7647L15.6415 7.09769C15.8798 6.81721 15.8456 6.39668 15.5653 6.15824Z" fill="black"/>
</svg>
