<svg width="483" height="405" viewBox="0 0 483 405" fill="none" xmlns="http://www.w3.org/2000/svg">
<style>path { fill: white; }</style>
<path d="M481.5 86.3639C477.38 79.4339 419.81 77.3639 387 77.3639C315 77.3639 269.96 104.824 229.46 136.324C223.56 135.944 217.7 135.864 211.5 135.864C205.03 135.864 199.3 135.864 193.56 136.184C166.56 91.194 144.48 69.6539 103.5 36.8639C81 18.8639 32.7 -4.83605 27 0.863948C18 9.86395 0 68.3639 0 126.864C0 162.864 18 216.864 40.5 248.364C62.6 279.304 54 332.844 54 337.344C54 347.404 128.21 404.824 211.45 404.844H211.5C294.74 404.824 368.95 347.404 368.95 337.344C368.95 332.844 362.1 284.364 373.5 272.264C379.57 265.824 405.52 234.914 427.5 203.364C460.94 155.364 488 97.3139 481.5 86.3639ZM90.72 162.674C90.56 162.604 90.43 162.474 90.34 162.314L60.83 103.474C60.47 102.754 59.42 102.914 59.27 103.704L50.72 151.144C50.57 151.934 49.52 152.084 49.15 151.374L36.09 125.314C36.01 125.154 35.98 124.964 36.02 124.794L48.1 59.2839C48.44 57.5039 50.38 56.514 52.01 57.324L111.77 86.7939C111.94 86.8739 112.07 87.0039 112.15 87.1639L125.22 113.224C125.57 113.934 124.82 114.684 124.11 114.334L80.96 92.8239C80.24 92.4739 79.49 93.224 79.85 93.934L108.41 150.894L109.36 152.774C109.57 153.184 109.4 153.684 108.99 153.884L91.46 162.674C91.21 162.804 90.94 162.794 90.72 162.674ZM175.38 257.504L177.06 270.004L111.48 242.014L108 229.394L175.38 257.504ZM131.84 295.834C116.07 292.444 105.61 282.354 108.47 273.274C111.34 264.204 126.45 259.594 142.23 262.984C158 266.364 168.47 276.464 165.6 285.534C162.73 294.604 147.62 299.214 131.84 295.834ZM229.5 364.334C224.36 363.714 211.5 355.334 211.5 355.334C211.5 355.334 198.7 363.714 193.5 364.334C190.86 364.654 162 344.834 162 344.834L171 338.364C171 338.364 189.46 349.924 193.84 351.394C195.67 352.004 206.67 348.084 207 346.334C207.09 345.864 207 337.334 207 337.334C207 337.334 196.95 331.104 194.17 328.334C192.34 326.524 193.74 322.644 195.85 322.644H227.12C229.24 322.644 230.63 326.514 228.8 328.334C226.03 331.094 216 337.334 216 337.334C216 337.334 215.91 345.864 216 346.334C216.33 348.084 227.31 351.924 229.14 351.314C233.53 349.844 252 338.364 252 338.364L261.22 344.834C261.22 344.834 232.14 364.654 229.5 364.334ZM290.27 295.834C275.88 299.214 262.08 294.604 259.47 285.534C256.85 276.464 266.4 266.364 280.8 262.984C295.2 259.594 308.99 264.204 311.61 273.274C314.22 282.354 304.67 292.444 290.27 295.834ZM284.6 219.634C270 223.004 254.06 239.254 250.44 250.494C250.44 250.494 241.14 237.914 243.33 233.994C246.97 227.464 271.83 205.834 288.81 208.744C311.61 212.644 323.71 238.274 323.99 238.894C323.32 238.244 300.18 216.034 284.6 219.634ZM422.82 119.774L399.06 181.994C399 182.174 398.88 182.314 398.72 182.404L374.01 197.864C373.33 198.274 372.51 197.604 372.79 196.854L390.17 151.884C390.45 151.144 389.64 150.464 388.96 150.884L333.14 185.774C332.98 185.874 332.8 185.914 332.63 185.884C332.38 185.874 332.14 185.744 332 185.504L321.6 168.874C321.35 168.484 321.47 167.974 321.86 167.744L323.66 166.624L377.68 132.844C378.36 132.424 378.1 131.384 377.31 131.314L329.27 127.224C328.48 127.164 328.23 126.124 328.9 125.704L353.61 110.254C353.77 110.154 353.95 110.114 354.13 110.134L420.5 116.064C422.32 116.224 423.46 118.074 422.82 119.774Z"/>
</svg>
