<svg xmlns="http://www.w3.org/2000/svg" style="display:none">
    <!-- Логотип -->
    <symbol id="icon-logo" viewBox="0 0 482.47 404.844">
        <path fill="currentColor" d="M481.5 86.364c-4.12-6.93-61.69-9-94.5-9-72 0-117.04 27.46-157.54 58.96-5.9-.38-11.76-.46-17.96-.46-6.47 0-12.2 0-17.94.32-27-44.99-49.08-66.53-90.06-99.32C81 18.864 32.7-4.836 27 .864 18 9.864 0 68.364 0 126.864c0 36 18 90 40.5 121.5 22.1 30.94 13.5 84.48 13.5 88.98 0 10.06 74.21 67.48 157.45 67.5h.05c83.24-.02 157.45-57.44 157.45-67.5 0-4.5-6.85-52.98 4.55-65.08 6.07-6.44 32.02-37.35 54-68.9 33.44-48 60.5-106.05 54-117ZM90.72 162.674c-.16-.07-.29-.2-.38-.36l-29.51-58.84c-.36-.72-1.41-.56-1.56.23l-8.55 47.44c-.15.79-1.2.94-1.57.23l-13.06-26.06c-.08-.16-.11-.35-.07-.52l12.08-65.51c.34-1.78 2.28-2.77 3.91-1.96l59.76 29.47c.17.08.3.21.38.37l13.07 26.06c.35.71-.4 1.46-1.11 1.11l-43.15-21.51c-.72-.35-1.47.4-1.11 1.11l28.56 56.96.95 1.88c.21.41.04.91-.37 1.11l-17.53 8.79c-.25.13-.52.12-.74 0h0ZM175.38 257.504l1.68 12.5-65.58-27.99-3.48-15.615 67.115 26.862.265 4.242ZM131.84 295.834c-15.77-3.39-26.23-13.48-23.37-22.56 2.87-9.07 17.98-13.68 33.76-10.29 15.77 3.38 26.24 13.48 23.37 22.55-2.87 9.07-17.98 13.68-33.76 10.3h0ZM229.5 364.334c-5.14-.62-18-9-18-9 0 0-12.8 8.38-18 9-2.64.32-31.5-19.5-31.5-19.5l9-6.47s18.46 11.56 22.84 13.03c1.83.61 12.83-3.31 13.16-5.06.09-.47 0-9 0-9 0 0-10.05-6.23-12.83-9-1.83-1.81-.43-5.69 1.68-5.69h31.27c2.12 0 3.51 3.87 1.68 5.69-2.77 2.76-12.8 9-12.8 9 0 0-.09 8.53 0 9 .33 1.75 11.31 5.59 13.14 4.98 4.39-1.47 22.86-12.95 22.86-12.95l9.22 6.47s-29.08 19.82-31.72 19.5ZM290.27 295.834c-14.39 3.38-28.19-1.23-30.8-10.3-2.62-9.07 6.93-19.17 21.33-22.55 14.4-3.39 28.19 1.22 30.81 10.29 2.61 9.08-6.94 19.17-21.34 22.56h0ZM284.593 221.097c-14.6 3.37-30.533 18.157-34.153 29.397 0 0-9.3-12.58-7.11-16.5 3.64-6.53 26.5-30.16 43.48-27.25 22.8 3.9 36.9 31.53 37.18 32.15-.67-.65-23.817-21.397-39.397-17.797h0ZM422.82 119.774l-23.76 62.22c-.06.18-.18.32-.34.41l-24.71 15.46c-.68.41-1.5-.26-1.22-1.01l17.38-44.97c.28-.74-.53-1.42-1.21-1l-55.82 34.89c-.16.1-.34.14-.51.11-.25-.01-.49-.14-.63-.38l-10.4-16.63c-.25-.39-.13-.9.26-1.13l1.8-1.12 54.02-33.78c.68-.42.42-1.46-.37-1.53l-48.04-4.09c-.79-.06-1.04-1.1-.37-1.52l24.71-15.45c.16-.1.34-.14.52-.12l66.37 5.93c1.82.16 2.96 2.01 2.32 3.71h0Z"/>
    </symbol>

    <!-- Стрелка вправо для меню -->
    <symbol id="icon-arrow-right" viewBox="0 0 13 10" fill="none">
        <path d="M3.91568 0.6735L8.02827 3.70548C8.09712 3.75682 8.06202 3.86456 7.97654 3.86341L1.21127 3.89912L0.985219 3.90125C0.939424 3.90045 0.899566 3.93945 0.898438 3.9879L0.910351 6.05828C0.910803 6.08859 0.92396 6.114 0.94713 6.1282C0.959895 6.13992 0.979163 6.14613 0.999003 6.14631L7.98869 6.10999C8.07263 6.10952 8.10929 6.21578 8.04087 6.26767L3.96215 9.34214C3.89532 9.39264 3.93198 9.49889 4.01732 9.5L7.11079 9.48271C7.13063 9.48289 7.14931 9.47838 7.16404 9.46601L12.7844 5.19459C12.9363 5.07841 12.9377 4.84798 12.7813 4.73307L7.11708 0.518306C7.10133 0.506391 7.08206 0.500181 7.06222 0.5L3.96876 0.517291C3.88482 0.517767 3.84823 0.623747 3.91568 0.6735Z" fill="currentColor"/>
    </symbol>

    <!-- Стрелка вверх для skills-track и about-me -->
    <symbol id="icon-arrow-up" viewBox="0 0 12 12" fill="none">
        <path d="M10.8747 5.93112V8.67992C10.8721 8.74995 10.8376 8.8139 10.7816 8.8614C10.7452 8.89246 10.6996 8.9156 10.6475 8.929C10.5173 8.96188 10.3767 8.92169 10.2986 8.8279L7.34234 5.39582L7.35752 11.2409C7.35687 11.3816 7.21299 11.5003 7.03787 11.4997L4.97163 11.4998C4.79651 11.5004 4.65264 11.3816 4.65199 11.241L4.66717 5.3959L1.71094 8.82798C1.63282 8.92177 1.4922 8.96197 1.362 8.92908C1.30992 8.91568 1.26435 8.89254 1.22789 8.86148C1.17191 8.81398 1.1374 8.75003 1.13479 8.68V5.93121C1.13349 5.87152 1.15498 5.8155 1.19404 5.76921L5.59008 0.688265C5.68643 0.573165 5.83742 0.504263 6.00473 0.5C6.17204 0.504263 6.32307 0.573081 6.41942 0.688181L10.8155 5.76913C10.8545 5.81541 10.876 5.87144 10.8747 5.93112Z" fill="currentColor"/>
    </symbol>

    <!-- Стрелка-ссылка для works -->
    <symbol id="icon-arrow-link" viewBox="0 0 72 72" fill="none">
        <g clip-path="url(#clip0_1911_4195)">
            <path fill-rule="evenodd" clip-rule="evenodd" d="M38.8008 32.4013C38.7994 32.4012 38.7976 32.4012 38.7958 32.4012C38.7928 32.4013 38.79 32.4014 38.79 32.4014L38.7958 32.4012L38.8008 32.4013Z" fill="currentColor"/>
            <path fill-rule="evenodd" clip-rule="evenodd" d="M36 72C55.8823 72 72 55.8823 72 36C72 16.1177 55.8823 0 36 0C16.1177 0 0 16.1177 0 36C0 55.8823 16.1177 72 36 72ZM38.9453 32.548L27.8547 24.4627C27.6728 24.33 27.7714 24.0474 27.9978 24.0461L36.3401 24C36.3936 24.0005 36.4456 24.017 36.4881 24.0488L51.763 35.2882C52.1847 35.5946 52.181 36.2091 51.7715 36.5189L36.6147 47.9094C36.575 47.9423 36.5246 47.9544 36.4711 47.9539L28.1288 48C27.8986 47.997 27.7998 47.7137 27.98 47.579L38.9793 39.3805C39.1638 39.2421 39.0649 38.9587 38.8386 38.96L19.9891 39.0568C19.9356 39.0563 19.8836 39.0398 19.8492 39.0085C19.7867 38.9707 19.7512 38.9029 19.75 38.8221L19.7179 33.3011C19.7209 33.1719 19.8284 33.0679 19.9519 33.07L20.5615 33.0643L38.8058 32.9691C39.0363 32.9722 39.131 32.6848 38.9453 32.548ZM38.7958 32.4012C38.7976 32.4012 38.7994 32.4012 38.8008 32.4013L38.79 32.4014C38.79 32.4014 38.7928 32.4013 38.7958 32.4012Z" fill="currentColor"/>
        </g>
        <defs>
            <clipPath id="clip0_1911_4195">
                <rect width="72" height="72" fill="white" transform="matrix(-1 0 0 1 72 0)"/>
            </clipPath>
        </defs>
    </symbol>
</svg>

